<svg width="200" height="200" viewBox="0 0 200 200" fill="none" xmlns="http://www.w3.org/2000/svg">
<path d="M70.1193 84.4702C70.001 84.5479 69.9179 84.669 69.8879 84.8074C69.858 84.9458 69.8836 85.0905 69.9593 85.2102C69.9996 85.2664 70.0511 85.3136 70.1105 85.3489C70.1699 85.3842 70.236 85.4067 70.3046 85.4152C70.3732 85.4237 70.4428 85.4178 70.509 85.398C70.5752 85.3782 70.6366 85.3449 70.6893 85.3002C70.7808 85.2198 70.8425 85.1109 70.8642 84.9911C70.886 84.8712 70.8667 84.7476 70.8093 84.6402C70.7775 84.5813 70.7337 84.5298 70.6808 84.4888C70.6278 84.4479 70.5669 84.4185 70.502 84.4025C70.437 84.3864 70.3694 84.3842 70.3035 84.3959C70.2376 84.4075 70.1749 84.4328 70.1193 84.4702ZM126.359 26.5802C128.273 27.7802 130.173 28.9968 132.059 30.2302C131.6 30.644 131.163 31.0813 130.749 31.5402C130.139 31.1302 129.529 30.7302 128.909 30.3402C128.887 30.3317 128.863 30.3314 128.841 30.3392C128.818 30.347 128.799 30.3625 128.787 30.3829C128.775 30.4032 128.771 30.4272 128.775 30.4505C128.779 30.4738 128.791 30.495 128.809 30.5102L130.589 31.7102C129.979 32.4002 129.409 33.1302 128.879 33.8602C128.819 33.9502 128.959 34.0302 129.019 33.9502C129.572 33.2193 130.162 32.5183 130.789 31.8502C131.709 32.4902 132.609 33.1402 133.509 33.7902C132.844 34.592 132.233 35.4372 131.679 36.3202L130.159 35.0002C130.069 34.9302 129.949 35.0002 130.029 35.1202C130.529 35.5902 131.029 36.0602 131.539 36.5202C131.05 37.3214 130.606 38.1493 130.209 39.0002C130.209 39.0902 130.299 39.1702 130.349 39.0802C130.751 38.259 131.198 37.461 131.689 36.6902C132.639 37.5802 133.599 38.4702 134.569 39.3402C133.656 40.762 132.876 42.265 132.239 43.8302C132.239 43.9002 132.329 43.9302 132.359 43.8302C133 42.2916 133.787 40.8181 134.709 39.4302C135.629 40.2602 136.569 41.0802 137.509 41.8802C136.123 43.446 134.965 45.2001 134.069 47.0902C134.069 47.1502 134.129 47.2102 134.169 47.1502C135.192 45.3481 136.387 43.6501 137.739 42.0802L138.739 42.9302C138.849 43.0202 139.009 42.8702 138.899 42.7602L137.899 41.8302C138.169 41.5302 139.899 39.8302 140.549 39.3402L142.289 40.8102C142.379 40.8902 142.509 40.7602 142.419 40.6802C141.879 40.1702 141.329 39.6802 140.769 39.1702C141.529 38.5802 142.329 38.0302 143.139 37.5102L143.969 38.0502C144.049 38.1002 144.129 37.9702 144.049 37.9102L143.319 37.3902C143.859 37.0502 144.419 36.7202 144.979 36.3902C145.079 36.3402 144.979 36.2102 144.899 36.2602C144.27 36.5574 143.659 36.8913 143.069 37.2602C141.819 36.3802 140.569 35.5102 139.299 34.6602C140.354 33.9419 141.52 33.4014 142.749 33.0602C142.776 33.0522 142.798 33.034 142.811 33.0097C142.824 32.9853 142.827 32.9567 142.819 32.9302C142.811 32.9036 142.793 32.8814 142.769 32.8682C142.744 32.8551 142.716 32.8522 142.689 32.8602C141.381 33.1678 140.142 33.7209 139.039 34.4902C137.839 33.6802 136.619 32.8802 135.399 32.0902C136.059 31.4768 136.864 31.0429 137.739 30.8302C137.829 30.8302 137.809 30.6502 137.739 30.6602C136.78 30.8215 135.892 31.2675 135.189 31.9402L132.389 30.1702L132.639 29.9202C132.719 29.8502 132.639 29.7402 132.529 29.8102C132.422 29.8914 132.318 29.9782 132.219 30.0702C130.289 28.8502 128.339 27.6502 126.389 26.4702C126.359 26.4102 126.279 26.5302 126.359 26.5802ZM131.839 36.4502C132.299 35.7402 133.579 34.0902 133.709 33.9302C134.789 34.7302 135.849 35.5402 136.899 36.3602C136.122 37.1783 135.416 38.0615 134.789 39.0002C133.819 38.1302 132.829 37.2902 131.839 36.4502ZM137.739 41.6502C136.819 40.7902 135.889 39.9502 134.939 39.1202C135.582 38.1921 136.305 37.3222 137.099 36.5202C138.199 37.3902 139.289 38.2702 140.369 39.1702C139.429 39.926 138.549 40.7553 137.739 41.6502ZM142.939 37.3602C142.121 37.855 141.336 38.4028 140.589 39.0002C139.529 38.0702 138.449 37.1702 137.339 36.2902C137.886 35.7667 138.471 35.2853 139.089 34.8502L142.939 37.3602ZM138.829 34.6702C138.227 35.1066 137.662 35.5915 137.139 36.1202C136.079 35.2902 134.999 34.4802 133.909 33.7002C134.314 33.2049 134.752 32.7372 135.219 32.3002L138.829 34.6702ZM134.999 32.1502C134.543 32.5957 134.113 33.0665 133.709 33.5602C132.799 32.9102 131.879 32.2802 130.959 31.6702C131.379 31.2202 131.809 30.7902 132.239 30.3502L134.999 32.1502Z" fill="black"/>
<path d="M128.51 176.8C127.08 176.46 124.95 177.06 123.68 176.87C123.13 176.843 122.605 176.63 122.191 176.267C121.777 175.904 121.498 175.412 121.4 174.87C121.154 171.721 120.605 168.603 119.76 165.56L119.33 165.66C119.23 165.29 119.4 162.86 116.33 147.6C115.16 141.71 114.19 135.73 110.24 130.96C110.73 130.18 111.24 129.4 111.67 128.61C111.88 128.25 112.29 127.78 112.29 127.33C112.29 126.6 110.39 123.13 109.8 122.27C108.6 120.52 108.18 120.54 107.01 121.56L97.6995 111.84C98.7536 109.121 99.4559 106.278 99.7895 103.38C105.28 103.58 185.01 102.89 187.85 102.84C189.4 102.84 191.24 102.84 192.57 101.84C192.815 101.661 193.011 101.424 193.14 101.15C193.269 100.875 193.328 100.573 193.31 100.27C193.43 99.1301 193.8 37.3701 193.74 36.5701C193.64 35.1001 193.34 33.5701 191.82 33.1601C187.88 32.1601 151.89 32.6201 149.1 32.6901C148.18 32.3001 147.36 31.9301 146.74 31.6101C134.54 25.2301 133.49 24.7901 130.19 22.9101C128.13 21.7301 125.97 19.7801 123.57 19.4001C122.716 19.1951 121.815 19.3368 121.066 19.7941C120.316 20.2514 119.778 20.987 119.57 21.8401C119.05 24.2001 119.93 27.1401 120.52 29.4001C120.76 30.3201 121.08 31.4001 121.52 32.5701C109.52 33.2301 102.86 32.6601 96.8195 32.9801C96.8161 32.1117 96.5664 31.2622 96.0995 30.5301C93.4495 26.2701 86.8095 29.6301 86.7995 29.6201C86.0813 28.8638 85.1999 28.2814 84.2225 27.9175C83.2451 27.5536 82.1975 27.4176 81.1595 27.5201C78.8143 27.723 76.558 28.5141 74.5995 29.8201C71.1995 32.3601 69.5995 37.2701 71.4895 41.2001C71.4895 41.2001 69.5495 44.0401 69.3295 45.7301C68.8595 49.2601 71.7195 52.2001 75.4595 50.1901C75.2595 50.7101 75.6795 50.9301 75.5595 51.2901C75.4995 51.4701 75.2995 51.5601 75.1995 51.7201C74.7095 52.4801 76.6895 53.2901 75.0695 54.3901C74.6835 54.5787 74.3424 54.8482 74.0695 55.1801C73.9836 55.2971 73.9317 55.4356 73.9193 55.5802C73.907 55.7249 73.9347 55.8701 73.9995 56.0001C74.1895 56.4401 74.4895 56.2901 74.7395 56.3701C75.5295 56.6001 74.7395 58.0801 75.3795 58.5601C75.6495 58.7601 76.0795 58.7001 76.2695 58.9701C76.4595 59.2401 76.2095 59.6801 75.9195 59.9101C75.2995 60.4101 75.0995 60.7001 75.6095 61.2801L77.5595 63.4601C77.2695 63.9701 76.3195 63.5801 76.0595 64.2601C76.011 64.4088 76.0049 64.568 76.042 64.72C76.0791 64.8719 76.1579 65.0105 76.2695 65.1201C76.6873 65.4634 77.2199 65.635 77.7595 65.6001V65.1201L78.9995 64.4101C79.9995 64.9801 78.7995 66.8101 79.7495 67.2601C79.7495 67.5401 79.3395 67.5301 79.0895 67.6701C78.6095 67.9501 78.9095 68.9201 79.9495 68.6701C80.3731 68.5645 80.7451 68.3109 80.9981 67.9551C81.2512 67.5994 81.3687 67.1649 81.3295 66.7301C82.0495 66.8101 81.9095 67.9101 82.4795 68.4201V68.5701C81.6588 68.5179 80.8379 68.6691 80.0895 69.0101C78.8002 69.3743 77.5317 69.8082 76.2895 70.3101C69.5995 73.0101 69.4295 74.3101 64.2895 80.2501C63.1967 81.5112 62.1942 82.8478 61.2895 84.2501C61.2295 84.3501 61.1295 84.2501 63.5395 86.3301C62.7954 87.057 62.153 87.8811 61.6295 88.7801C50.9995 88.5901 10.1995 88.4001 8.93951 88.4301C6.74951 88.4301 5.60951 89.0501 5.37951 91.3501C5.15951 93.4901 4.87951 117.47 5.05951 123.13C5.14951 125.99 5.32951 128.86 5.37951 131.72C5.42951 134.58 5.13952 138.72 6.81952 140.35C8.11952 141.58 10.4195 141.29 12.0395 141.35C17.2295 141.35 22.3695 141.35 27.5495 141.09C26.9066 142.721 26.4764 144.429 26.2695 146.17C24.9054 150.936 24.8124 155.977 25.9995 160.79C22.4195 159.35 15.3795 156.89 14.8795 157.69C16.3367 162.42 18.9646 166.706 22.5195 170.15C17.7829 169.403 12.9318 170.003 8.51952 171.88C14.0595 175.27 22.6695 180.93 29.3795 177.94C21.1195 180.14 15.1195 175.31 8.77952 171.94C13.2805 170.099 18.2111 169.572 22.9995 170.42C23.5656 170.653 24.1137 170.927 24.6395 171.24C24.6995 171.24 24.7795 171.13 24.5395 170.97C19.5395 168.29 17.1295 162.61 15.1195 157.68C21.2395 158.68 27.5095 161.12 32.0095 165.04C30.7095 163.13 26.1495 160.91 26.2895 160.85C25.0295 154.59 25.8295 150.79 26.3695 147C26.8795 149.35 29.2495 148.41 29.2495 148.41C30.4329 146.415 32.1235 144.769 34.1495 143.64L35.5295 144.79C38.2 149.18 40.126 153.982 41.2295 159C40.5646 160.028 40.0051 161.12 39.5595 162.26C39.4495 162.77 39.7095 162.5 39.7595 162.4C41.5595 158.63 44.9495 154.07 47.3695 152.67C49.6831 154.091 52.14 155.264 54.6995 156.17C53.7595 160.25 51.1195 167.88 51.1195 167.88C51.1195 167.88 51.3895 168.08 57.6095 167.01C56.5799 168.931 55.1574 170.614 53.4345 171.95C51.7116 173.285 49.7269 174.242 47.6095 174.76C47.4595 174.76 47.4595 175 47.6095 174.99C51.0636 174.988 54.513 175.242 57.9295 175.75C58.0195 175.75 58.0495 175.6 57.9295 175.59C54.8198 175.014 51.6621 174.736 48.4995 174.76C52.3295 173.51 56.9095 171 57.9895 166.87C56.2695 166.22 53.6495 167.21 51.4895 167.49C53.1793 163.933 54.3318 160.145 54.9095 156.25C56.4504 156.742 58.0455 157.044 59.6595 157.15C62.5954 157.5 65.5597 156.791 68.0195 155.15C70.426 153.547 72.4644 151.451 73.9995 149C75.1295 149.35 76.8095 150.48 78.2095 149.91C79.4579 149.193 80.4005 148.044 80.8595 146.68C81.2371 145.835 81.287 144.88 80.9995 144C82.8595 141.76 83.8795 136.43 84.2195 134.89C84.6786 133.069 85.533 131.372 86.722 129.918C87.9111 128.465 89.4057 127.291 91.0995 126.48C92.2695 126.18 91.6095 126.93 91.6095 126.93C89.6716 127.81 87.9915 129.172 86.7293 130.886C85.4672 132.6 84.6651 134.608 84.3995 136.72L90.6895 142.09C90.1095 143 89.4295 143.69 89.9895 144.92C90.8016 146.392 91.9839 147.626 93.4195 148.5C93.8195 148.77 94.2095 149.11 94.6995 148.97C95.1895 148.83 96.5895 147.24 96.7795 147.04C97.5179 147.827 98.3394 148.531 99.2295 149.14C99.7495 149.56 100.59 150.02 100.8 150.59C100.918 151.117 101.002 151.652 101.05 152.19C102.21 157.94 106.35 165.19 109.83 170.03C108.92 170.58 108.55 170.86 108.55 170.86L117.55 184.93C126.19 183.71 129.73 179.68 130.02 178.56C130.11 178.11 129.47 177 128.51 176.8ZM193 99.9401C192.88 101.25 192.57 101.73 191.11 102.15C188.91 102.78 103.98 103.08 99.8795 103.01C100.25 100.45 100.54 98.3901 100.73 95.9501C101.64 96.6201 102.46 97.4501 103.32 98.1801C103.332 98.1931 103.346 98.2035 103.363 98.2106C103.379 98.2177 103.397 98.2213 103.415 98.2213C103.432 98.2213 103.45 98.2177 103.466 98.2106C103.483 98.2035 103.497 98.1931 103.51 98.1801C103.96 97.7701 104.39 97.3501 104.82 96.9201C106.692 98.3147 108.757 99.4297 110.95 100.23C111.826 100.557 112.758 100.705 113.693 100.666C114.627 100.626 115.544 100.4 116.39 100C120.435 97.9871 123.652 94.628 125.49 90.5001C134.64 90.3101 143.8 90.3201 152.94 89.7701C152.961 89.7715 152.982 89.7684 153.002 89.7609C153.023 89.7534 153.041 89.7416 153.056 89.7265C153.071 89.7113 153.083 89.6931 153.09 89.673C153.098 89.6529 153.101 89.6315 153.1 89.6101C152.93 85.1601 152.97 80.4901 152.61 76.0401C166.21 75.6001 179.72 75.1301 193.32 74.8501C193.32 80.4701 193.26 97.2101 193 99.9401ZM95.1895 66.6001C95.1117 66.5918 95.0331 66.5994 94.9583 66.6223C94.8835 66.6453 94.8141 66.6831 94.7543 66.7335C94.6945 66.784 94.6456 66.846 94.6104 66.9159C94.5752 66.9857 94.5545 67.062 94.5495 67.1401C94.5495 67.5101 94.4895 67.8701 94.4395 68.3901C93.8469 69.068 93.3022 69.7864 92.8095 70.5401C92.2214 71.7643 91.7461 73.0395 91.3895 74.3501C91.1795 73.7901 90.1895 70.8001 90.1595 70.7601C88.9613 69.5226 87.6636 68.3855 86.2795 67.3601C86.352 67.2907 86.4069 67.205 86.4395 67.1101C87.0126 65.9347 87.2082 64.6109 86.9995 63.3201C86.7995 62.4601 86.2395 61.3801 87.1695 60.7601C87.2506 60.6931 87.3548 60.6608 87.4595 60.6701C88.0395 60.7501 87.8195 61.8801 87.8195 62.2601C87.8195 64.5501 87.7495 65.1001 88.1195 65.5201C88.1916 65.616 88.2912 65.6877 88.4051 65.7255C88.5189 65.7634 88.6416 65.7656 88.7568 65.7319C88.872 65.6982 88.9741 65.6302 89.0497 65.537C89.1252 65.4438 89.1705 65.3297 89.1795 65.2101C89.3895 64.2701 88.7895 63.2901 88.9595 62.3401C89.0995 61.5601 89.7495 60.7501 89.3495 60.0601C89.2371 59.9222 89.1368 59.775 89.0495 59.6201C88.7495 58.9101 89.8295 58.2301 89.6495 57.4901C89.5295 56.9601 88.8195 56.6801 88.8295 56.1401C88.8689 55.9104 88.9576 55.6921 89.0895 55.5001C89.3783 54.9712 89.45 54.3508 89.2895 53.7701C89.1891 53.5146 89.1317 53.2443 89.1195 52.9701C89.1195 52.7001 89.3695 52.4201 89.6395 52.4801C89.7677 52.5288 89.8862 52.5999 89.9895 52.6901C90.0892 52.7398 90.1988 52.7667 90.3102 52.7688C90.4217 52.7709 90.5321 52.7481 90.6337 52.7021C90.7352 52.6562 90.8252 52.5881 90.8971 52.503C90.9691 52.4179 91.0211 52.3178 91.0495 52.2101C91.0555 51.9115 91.0116 51.6141 90.9195 51.3301C90.8555 50.9173 90.9505 50.4957 91.1852 50.1502C91.4199 49.8046 91.7769 49.561 92.1842 49.4684C92.5914 49.3758 93.0187 49.4411 93.3797 49.6511C93.7408 49.8611 94.0087 50.2002 94.1295 50.6001C94.2695 51.0701 94.1995 51.6001 94.4795 52.0001C94.7595 52.4001 95.0995 52.4801 95.3995 52.7401C95.9463 53.4479 96.194 54.3418 96.0895 55.2301C96.0895 56.1101 96.4295 57.1701 97.2795 57.4001C97.7295 56.8801 97.2795 56.0901 97.2795 55.4001C97.3683 54.6368 97.7222 53.929 98.2795 53.4001C98.4295 53.2201 98.6095 53.0101 98.8795 53.0601C98.9651 53.0823 99.0446 53.1235 99.1121 53.1807C99.1796 53.2378 99.2334 53.3093 99.2695 53.3901C99.3597 53.741 99.3597 54.1091 99.2695 54.4601C99.1295 56.1401 100.57 57.3001 100.44 58.9801C100.395 59.7219 100.219 60.4498 99.9195 61.1301C98.4195 64.0401 97.9195 65.2001 97.0595 65.9601C96.5442 66.4103 95.8727 66.6401 95.1895 66.6001ZM96.7695 70.0001C96.0495 71.4301 95.5795 73.0001 94.7695 74.4001C94.2595 73.1301 93.0195 70.6101 93.0095 70.6001C93.3295 70.2501 94.4295 68.9001 94.8895 68.3401C95.1961 68.3132 95.5035 68.3814 95.7701 68.5352C96.0366 68.6891 96.2494 68.9212 96.3795 69.2001C96.4534 69.4906 96.5861 69.7629 96.7695 70.0001ZM89.9995 70.8601C89.2175 72.1177 88.5161 73.4236 87.8995 74.7701C86.9895 73.7701 83.8995 69.7701 82.8995 68.5601C83.2495 68.6301 83.4095 68.3201 83.5495 68.1101C83.792 67.754 84.1429 67.4857 84.5501 67.3452C84.9574 67.2047 85.3991 67.1993 85.8095 67.3301H85.9495C86.8395 68.2701 89.3695 70.2901 89.9995 70.8601ZM100.18 69.0801C100.374 69.1724 100.587 69.2192 100.803 69.217C101.018 69.2147 101.23 69.1635 101.423 69.0671C101.616 68.9708 101.784 68.8318 101.915 68.6608C102.046 68.4898 102.137 68.2912 102.18 68.0801C102.216 67.5068 102.391 66.9508 102.69 66.4601C103.88 65.0001 107.51 67.0301 106.55 62.0501C106.456 61.7852 106.451 61.4974 106.534 61.2292C106.616 60.9609 106.783 60.7263 107.01 60.5601C108.01 59.5001 109.01 57.9701 108.44 56.5601C108.267 56.2734 108.135 55.9636 108.05 55.6401C107.97 54.9001 108.75 54.2701 108.64 53.5401C107.985 53.2335 107.463 52.7009 107.17 52.0401C106.94 51.2401 107.42 50.4201 107.62 49.6101C107.82 48.8001 107.45 47.6101 106.62 47.7101C106.619 47.8549 106.578 47.9968 106.502 48.1198C106.425 48.2427 106.316 48.342 106.186 48.4063C106.056 48.4707 105.911 48.4977 105.767 48.4842C105.623 48.4707 105.485 48.4174 105.37 48.3301C104.65 47.7901 105.21 47.0801 105.37 46.4701C105.395 45.9898 105.282 45.5125 105.044 45.0943C104.807 44.6761 104.455 44.3346 104.03 44.1101C103.169 43.6775 102.355 43.1582 101.6 42.5601C101.693 42.4039 101.82 42.2696 101.97 42.1661C102.12 42.0626 102.29 41.9924 102.47 41.9601C102.59 41.3601 101.86 40.9601 101.26 40.8401C99.1907 40.4035 97.0387 40.5951 95.0795 41.3901C94.6949 41.6018 94.2576 41.6989 93.8195 41.6701C93.3895 41.5801 93.0295 41.0501 93.2995 40.6701C93.4095 40.5101 93.6395 40.3901 93.7295 40.2401C96.9495 40.2401 96.3895 39.9701 109.1 40.0701C114.23 40.0701 119.35 40.2001 124.48 40.2101C125.173 41.9647 125.954 43.6835 126.82 45.3601C128.955 49.2078 131.651 52.7163 134.82 55.7701C131.82 55.4101 122.23 55.6001 119.91 55.5301C119.87 55.5301 119.832 55.5459 119.803 55.574C119.775 55.6021 119.76 55.6403 119.76 55.6801C119.84 61.5201 119.96 67.4901 120.34 73.3201C120.195 73.5532 120.11 73.818 120.091 74.0915C120.071 74.365 120.119 74.6391 120.23 74.8901L112.14 82.3401C110.51 80.3401 104.27 73.0301 97.9295 69.7601C98.6895 69.2901 98.8195 68.4501 100.13 69.0801H100.18ZM136.18 60.0801C132.78 63.0201 126.51 68.8401 124.9 70.7501C124.667 70.6071 124.408 70.5147 124.138 70.4788C123.868 70.4429 123.593 70.4643 123.331 70.5417C123.07 70.6191 122.828 70.7506 122.621 70.9278C122.414 71.105 122.246 71.3238 122.13 71.5701C121.799 71.6584 121.502 71.8405 121.273 72.0943C121.044 72.348 120.894 72.6626 120.84 73.0001C120.716 73.0375 120.6 73.0986 120.5 73.1801C120.15 67.7401 119.88 56.1801 119.96 55.8801C119.96 55.9801 132.46 55.8801 134.96 56.0901C135.37 56.4801 135.6 56.7001 136.02 57.0901C136 58.0501 136.13 59.1201 136.13 60.1001L136.18 60.0801ZM137.86 58.6701C137.52 58.9301 137.05 59.3201 136.49 59.8101C136.49 58.8801 136.41 58.0201 136.37 57.2801C136.75 57.6201 137.13 57.9501 137.52 58.2801C137.58 58.4301 137.69 58.5601 137.81 58.6901L137.86 58.6701ZM136.77 55.4601C135.57 50.1301 138.94 46.0501 142.89 42.0401C144.447 40.2606 146.245 38.7058 148.23 37.4201C150.35 36.2201 153.34 35.2601 155.78 35.9101C156.865 36.2628 157.842 36.8887 158.616 37.7274C159.39 38.5662 159.935 39.5898 160.2 40.7001C161.54 45.4201 158.73 50.0701 155.65 53.4301C152.26 57.1201 146.8 60.9701 141.53 60.1101C140.378 59.8589 139.319 59.2931 138.469 58.4757C137.62 57.6583 137.014 56.6213 136.72 55.4801L136.77 55.4601ZM136.7 76.3301C136.702 76.3734 136.721 76.4141 136.753 76.4439C136.784 76.4736 136.826 76.4901 136.87 76.4901C142.056 76.3501 147.25 76.1934 152.45 76.0201C152.45 79.4501 152.99 88.1001 152.83 88.8701C152.67 89.6401 151.46 89.5301 150.66 89.5701C149.02 89.6501 132.56 90.0701 125.66 90.1901C127.73 85.2901 127.16 80.1901 126.49 74.3301C126.499 73.4302 126.322 72.5382 125.97 71.7101C126.24 71.1801 126.97 70.9301 126.61 69.8101C129.1 67.6401 133.42 63.6301 136.15 61.0301C136.15 66.1501 136.43 71.2701 136.65 76.3501L136.7 76.3301ZM112.5 83.0001C112.73 82.7701 118.4 77.4201 120.38 75.5301L120.58 78.7801C118.678 81.4162 117.137 84.2951 116 87.3401C114.952 86.1597 113.767 85.1089 112.47 84.2101C112.532 83.8098 112.542 83.403 112.5 83.0001ZM120.82 78.4401L120.62 75.3101L121.1 74.8401C121.37 75.1601 121.51 75.9001 121.75 76.1501C121.82 76.2401 122.13 76.5201 122.25 76.4701C122.37 76.4201 121.64 77.2601 120.82 78.4301V78.4401ZM116.19 88.0001C116.28 88.0901 116.46 88.0001 116.38 87.8501C116.3 87.7001 116.19 87.5801 116.06 87.4201C117.768 83.4993 119.955 79.8046 122.57 76.4201C122.58 76.4033 122.586 76.3845 122.589 76.3649C122.592 76.3454 122.59 76.3255 122.584 76.3066C122.579 76.2878 122.569 76.2703 122.556 76.2554C122.543 76.2404 122.527 76.2284 122.51 76.2201C122.285 76.1019 122.087 75.9374 121.93 75.7375C121.773 75.5376 121.661 75.3067 121.6 75.0601C121.47 74.7001 121.48 74.2601 121.03 74.2001C120.75 74.2001 120.33 74.5401 120.35 74.5501C120.37 74.5601 120.35 72.6401 122.48 73.3801C122.66 73.4501 122.73 73.1701 122.55 73.1001C122.053 72.9196 121.515 72.8849 121 73.0001C121.159 72.569 121.472 72.2126 121.88 72.0001C122.109 71.9222 122.355 71.9071 122.593 71.9563C122.83 72.0055 123.05 72.1173 123.23 72.2801C123.258 72.3017 123.294 72.3122 123.33 72.3097C123.366 72.3071 123.4 72.2917 123.426 72.2661C123.451 72.2406 123.467 72.2067 123.469 72.1707C123.472 72.1347 123.461 72.0989 123.44 72.0701C123.296 71.9028 123.113 71.7746 122.906 71.6976C122.7 71.6207 122.477 71.5974 122.26 71.6301C123.14 70.2901 124.95 70.7201 125.74 71.9501C126.067 72.615 126.228 73.3492 126.21 74.0901C126.618 76.9718 126.815 79.8796 126.8 82.7901C126.85 85.6976 126.201 88.5748 124.91 91.1801C123.3 94.3683 120.852 97.058 117.83 98.9601C116.857 99.6667 115.729 100.13 114.541 100.311C113.353 100.492 112.138 100.385 111 100C108.86 99.2144 106.84 98.1339 105 96.7901C106.712 95.0786 108.222 93.1761 109.5 91.1201C110.797 89.0339 111.784 86.7702 112.43 84.4001C113.73 85.5801 115 86.7501 116.19 88.0001ZM125.19 70.9401C125.49 70.7101 125.89 70.3801 126.36 69.9401C126.429 70.2842 126.365 70.6418 126.18 70.9401C126.021 71.0918 125.892 71.2715 125.8 71.4701C125.63 71.2823 125.431 71.1235 125.21 71.0001L125.19 70.9401ZM112.27 83.2001C112.27 85.3201 110.98 87.8101 110.02 89.6001C108.391 92.5043 106.334 95.1472 103.92 97.4401C103.67 97.7301 103.62 97.9101 103.4 97.8701C103.18 97.8301 101.53 96.1501 100.77 95.7001C100.77 95.1001 100.86 94.4801 100.9 93.8401C104.7 90.3201 108.74 86.5301 112.27 83.2001ZM193.34 74.5001C183.46 74.7001 138.94 76.2401 137.77 76.1501C137.04 76.0901 136.97 76.0201 136.94 75.2301C136.94 74.6801 136.71 66.6101 136.48 60.7201C137.21 60.0201 137.81 59.4401 138.18 59.0701C139.035 59.9239 140.137 60.4871 141.33 60.6801C146.45 61.4201 151.72 58.1701 155.2 54.6801C159.2 50.6801 162.48 45.1301 160.48 39.8401C166.35 40.0001 188.05 39.5501 193.48 39.2601C193.5 44.3301 193.37 67.8101 193.34 74.5001ZM190.88 33.2701C193.6 33.8801 193.47 36.2701 193.47 38.9501C188.02 39.1101 166.12 39.4701 160.39 39.6401C159.787 38.0576 158.647 36.7373 157.17 35.9101C156.79 35.7101 152.77 34.2501 149.59 32.9101C161.54 32.7001 188.66 32.7701 190.88 33.2701ZM120.07 25.4101C119.87 24.0501 119.53 22.2801 120.29 21.0301C121.05 19.7801 122.89 19.5101 124.29 19.9501C126.05 20.5001 126.48 21.2601 131.29 23.9501C134.09 25.4901 144.2 30.7801 147.01 32.2501C149.165 33.429 151.413 34.4322 153.73 35.2501C152.413 35.3321 151.118 35.6189 149.89 36.1001C147.417 37.1721 145.211 38.777 143.43 40.8001C141.282 42.8193 139.376 45.0811 137.75 47.5401C135.4 51.4201 135.7 55.3501 137.03 57.6301C128.44 49.8701 125.74 44.0101 122.09 33.2701C121.175 30.7179 120.499 28.0867 120.07 25.4101ZM121.63 33.0001C122.38 35.2301 123.32 37.7301 124.23 40.0001C107.23 40.0001 98.0395 39.7001 93.6495 40.1901C93.5995 40.0201 93.3595 39.9401 93.1795 39.9001C94.8695 38.1301 96.7395 35.7401 96.8195 33.3101C101.06 33.4601 115.1 33.3601 121.63 33.0001ZM74.9095 30.0001C76.5407 28.9666 78.3697 28.2854 80.2795 28.0001C81.3754 27.7524 82.516 27.7848 83.596 28.0941C84.6761 28.4035 85.6609 28.9798 86.4595 29.7701C86.4595 29.7701 76.9995 33.0001 71.6395 41.0701C70.4795 36.9301 71.2195 32.6301 74.9095 30.0001ZM76.9995 48.0001C76.8547 48.2953 76.6464 48.5548 76.3895 48.7601C76.1695 49.0101 76.0195 49.4001 76.2395 49.6501C76.2406 49.6285 76.2359 49.607 76.2258 49.5879C76.2157 49.5688 76.2007 49.5528 76.1823 49.5415C76.1638 49.5302 76.1427 49.5242 76.1211 49.5239C76.0995 49.5237 76.0782 49.5292 76.0595 49.5401C73.7295 51.0001 70.8195 50.9301 69.8595 48.0001C69.1195 45.7601 70.2095 43.5301 71.5195 41.7501C77.7595 33.2501 87.7995 28.7501 92.3795 28.7501C95.2895 28.8001 96.7895 31.5201 96.2495 34.1801C95.8095 36.4301 94.2495 38.1801 92.7295 39.7601C91.7295 39.8701 90.8195 40.8401 89.1395 42.3401C89.1554 42.1348 89.135 41.9283 89.0795 41.7301C90.7095 40.3701 92.2395 38.2501 92.2895 36.0901C92.2895 35.2401 92.1595 33.8901 91.3795 33.3601C90.5995 32.8301 88.9995 33.1901 87.9995 33.3401C84.9142 33.9447 82.0195 35.2823 79.5595 37.2401C77.5595 38.7601 75.0495 40.6101 74.4095 43.2401C73.9695 45.0001 75.1095 47.4501 77.1695 46.9001C76.9995 47.3801 77.1595 47.6701 76.9995 48.0001ZM81.8695 45.3101C80.6095 45.5001 80.5095 44.1901 79.5295 44.0501C79.3867 44.0264 79.2402 44.0591 79.1209 44.1411C79.0015 44.2231 78.9186 44.3482 78.8895 44.4901C78.8895 44.7901 79.0695 44.9201 79.2295 45.1001C79.3218 45.2324 79.3806 45.3851 79.4011 45.5451C79.4215 45.7051 79.403 45.8677 79.347 46.019C79.291 46.1703 79.1992 46.3058 79.0795 46.414C78.9598 46.5221 78.8157 46.5997 78.6595 46.6401L78.1795 46.0001C77.8298 46.0957 77.5274 46.3163 77.3295 46.6201C76.9655 46.6789 76.5927 46.6531 76.2403 46.5446C75.8878 46.4361 75.5651 46.2479 75.2972 45.9945C75.0293 45.741 74.8234 45.4293 74.6954 45.0834C74.5675 44.7375 74.521 44.3668 74.5595 44.0001C74.7828 42.4767 75.5372 41.0812 76.6895 40.0601C82.6195 34.1101 90.0795 32.4401 91.5495 33.9601C92.2995 34.7401 92.7195 38.3201 88.9595 41.5501C88.9237 41.4879 88.8735 41.4352 88.8131 41.3963C88.7528 41.3575 88.684 41.3336 88.6126 41.3268C88.5411 41.3199 88.4691 41.3303 88.4024 41.3569C88.3358 41.3836 88.2765 41.4258 88.2295 41.4801C87.9495 41.8601 88.6995 42.2901 87.5595 42.6701C87.3295 42.7501 86.8095 42.8101 86.6595 42.6701C86.3895 42.3401 87.2495 41.7901 86.8995 41.5601C86.6295 41.1601 85.8995 41.3601 85.6895 41.7701C85.5029 42.2189 85.359 42.6843 85.2595 43.1601C84.9895 43.8901 84.2595 44.0801 84.0395 43.7601C83.4595 42.9101 84.2395 42.9401 84.2095 42.4601C84.2095 41.7701 82.9495 41.8701 83.0095 43.1401C83.0095 43.7101 83.2395 44.2801 82.8495 44.8201C82.6164 45.1098 82.2789 45.2965 81.9095 45.3401L81.8695 45.3101ZM61.6095 84.3101C61.6095 84.2101 61.9395 83.8001 61.9995 83.7101C63.0179 82.2483 64.1232 80.8491 65.3095 79.5201C69.6295 74.5201 70.0995 73.3001 75.4495 70.9801C76.6092 70.4732 77.7941 70.0259 78.9995 69.6401C79.8895 69.3601 81.7995 68.4901 82.6995 68.8501C83.0795 69.6601 83.3695 69.9501 87.7495 74.9501C87.7495 74.9501 87.7495 75.0201 87.8195 74.9501C87.8895 74.8801 89.3995 72.2901 90.0495 71.0201C90.1695 72.2584 90.5881 73.4491 91.2695 74.4901C91.2777 74.5024 91.2889 74.5126 91.302 74.5196C91.3151 74.5266 91.3297 74.5303 91.3445 74.5303C91.3594 74.5303 91.374 74.5266 91.3871 74.5196C91.4002 74.5126 91.4113 74.5024 91.4195 74.4901C92.0492 73.3192 92.5456 72.0815 92.8995 70.8001C93.4495 72.0801 94.1695 73.2701 94.6795 74.5701C94.6795 74.5701 94.8995 74.6401 94.9395 74.5701C95.5595 73.0601 96.4495 71.6201 96.9395 70.0501C97.0423 70.0938 97.1528 70.1163 97.2645 70.1163C97.3762 70.1163 97.4867 70.0938 97.5895 70.0501C104.16 74.4201 105.79 75.5801 111.93 82.6201C108.52 85.7701 104.64 89.3501 100.93 92.7601C101.03 91.225 101.03 89.6851 100.93 88.1501C100.93 88.0501 100.51 86.6001 100.49 88.0701C100.49 89.1701 100.49 91.0701 100.38 93.2701C95.7095 97.6101 91.3795 101.61 88.9695 103.99C88.4918 103.907 88.0011 103.942 87.5395 104.09C87.3517 104.169 87.1469 104.2 86.9441 104.179C86.7413 104.158 86.5471 104.086 86.3795 103.97C86.0095 103.8 77.3795 99.8801 75.8595 99.0601C75.3195 98.7601 73.6995 98.1901 73.7195 97.4501C73.7195 97.1901 74.8595 95.4501 75.0695 95.0501C76.1995 95.8201 76.1695 95.8501 76.2695 95.7601C79.1566 93.2435 81.5594 90.2205 83.3595 86.8401C83.3628 86.8341 83.3649 86.8277 83.3657 86.8209C83.3664 86.8142 83.3659 86.8074 83.364 86.8009C83.3622 86.7944 83.359 86.7883 83.3548 86.7831C83.3506 86.7778 83.3454 86.7733 83.3395 86.7701C83.3336 86.7668 83.3271 86.7647 83.3204 86.7639C83.3137 86.7631 83.3069 86.7637 83.3004 86.7656C83.2939 86.7674 83.2878 86.7705 83.2825 86.7747C83.2772 86.7789 83.2728 86.7842 83.2695 86.7901C82.1895 88.6001 76.4795 95.5301 76.1595 95.5201C75.8395 95.5101 69.0395 90.5201 68.7295 90.2701C69.9867 89.0032 71.1498 87.6462 72.2095 86.2101C72.2903 85.1416 72.2903 84.0685 72.2095 83.0001C72.2072 82.9716 72.1949 82.945 72.1748 82.9248C72.1546 82.9047 72.1279 82.8923 72.0995 82.8901C71.0195 82.8901 69.7695 82.5601 69.0395 83.4301C67.8295 84.8601 66.5695 86.2001 65.3795 87.6401C65.0795 87.3101 61.6595 84.3901 61.6495 84.2901L61.6095 84.3101ZM68.5295 90.1101C67.5295 89.3301 66.5295 88.5401 65.5295 87.7101C66.5895 86.7101 69.0095 83.5901 69.3795 83.3001C70.1477 83.0392 70.9667 82.9638 71.7695 83.0801C72.1695 83.1901 72.0795 84.9801 72.0095 85.6501C71.9395 86.3201 69.3595 89.2101 68.5695 90.0901L68.5295 90.1101ZM63.7395 86.4301C67.2981 89.444 71.0132 92.2679 74.8695 94.8901C73.6595 97.2901 72.9495 97.5501 73.2095 97.7201C77.4995 100.59 82.5195 101.97 86.8895 104.72C87.0995 104.86 87.4295 104.19 88.6995 104.25L87.9695 104.96C87.9436 104.886 87.9436 104.805 87.9695 104.73C87.9695 104.67 87.9695 104.64 87.8895 104.67C87.4295 105.06 88.4095 105.79 89.4995 104.99C89.6756 105.16 89.8092 105.369 89.8895 105.6C89.9283 105.774 89.9269 105.955 89.8853 106.128C89.8437 106.301 89.7631 106.463 89.6495 106.6C89.4146 106.857 89.1103 107.042 88.7733 107.13C88.4362 107.219 88.0807 107.208 87.7495 107.1C87.7495 107.1 87.6495 107.17 87.7495 107.2C88.0873 107.366 88.4679 107.424 88.8398 107.367C89.2117 107.31 89.5571 107.14 89.8295 106.88C89.9296 107.112 89.9602 107.367 89.9176 107.616C89.875 107.864 89.761 108.095 89.5895 108.28C89.0195 108.91 88.2495 108.7 87.5295 108.56C87.5128 108.555 87.495 108.557 87.4795 108.565C87.464 108.573 87.452 108.586 87.4458 108.602C87.4396 108.619 87.4396 108.637 87.4458 108.653C87.452 108.669 87.4641 108.682 87.4795 108.69C87.9266 108.959 88.4591 109.048 88.9695 108.94C88.9695 110.05 86.8495 109.94 86.2395 109.78C85.6389 109.551 85.0862 109.211 84.6095 108.78C84.3795 108.58 84.0595 108.04 83.7995 107.93C83.5395 107.82 81.7995 108.16 76.6995 108.07C68.5095 107.92 67.1295 106.81 63.8895 103.42C58.8795 98.1401 59.4295 91.1501 63.7795 86.4101L63.7395 86.4301ZM5.99951 90.0001C6.99951 88.1001 10.4995 88.7601 12.2395 88.7601C17.4395 88.7601 50.1795 88.8701 61.5695 89.1101C60.651 90.7873 60.1437 92.6586 60.0895 94.5701C50.6895 94.3501 14.4995 94.3701 5.49951 94.5101C5.53951 93.0001 5.34951 91.1901 5.99951 90.0001ZM31.9995 133.1C30.6995 133.91 28.8795 137.46 27.6395 140.82C9.11951 141.11 8.74952 141.31 7.40951 140.49C5.50951 139.34 5.63951 135.31 5.64951 133.13C5.65951 130.95 5.54951 128.72 5.45951 126.52C5.01951 115.94 5.51951 94.7001 5.51951 94.6601C9.94952 94.8801 50.6595 94.6601 60.0995 94.8801C60.0995 99.4701 62.7995 103.19 66.3895 105.98C66.2395 106.27 65.2495 107.47 65.1895 107.6C65.916 108.431 66.7196 109.191 67.5895 109.87L59.0995 130.44C58.8792 130.269 58.6038 130.185 58.3255 130.203C58.0473 130.222 57.7854 130.342 57.5895 130.54C56.5895 131.46 56.4295 133.54 56.1795 134.74C55.8695 136.33 55.9195 136.82 57.5895 138.74C57.5895 138.74 55.5895 141.43 55.5895 141.48C55.5895 141.53 46.7795 138.83 45.8095 138.65C45.9195 137.97 45.9795 137.56 45.9795 137.56C45.9795 137.56 34.2595 131.69 31.9995 133.1ZM71.3195 125.27C71.3195 125.35 73.4895 125.48 78.5495 123.27C78.5495 123.77 74.5495 134.02 74.5495 134.02C74.5495 134.02 73.6795 135.9 71.2295 134.68C69.2209 133.559 67.3078 132.275 65.5095 130.84C65.5095 130.84 64.1795 129.98 65.3695 127.5C66.5595 125.02 69.1395 118.84 69.2895 118.6C69.5045 120.937 70.1917 123.206 71.3095 125.27H71.3195ZM69.5395 118.27C69.8095 117.96 70.1795 117.74 70.5395 118.06L77.1595 121.16C77.5165 121.3 77.8293 121.534 78.065 121.837C78.3007 122.139 78.4508 122.5 78.4995 122.88C77.4395 123.38 72.7695 125.1 71.4995 124.94C70.478 122.852 69.8121 120.608 69.5295 118.3L69.5395 118.27ZM40.0795 143.82C39.7904 144.794 39.3734 145.726 38.8395 146.59C38.7295 146.76 38.4095 146.66 38.4895 146.44C38.8295 145.5 39.4095 144.62 39.8395 143.72C39.8461 143.704 39.8557 143.69 39.8678 143.678C39.8799 143.666 39.8942 143.656 39.91 143.65C39.9258 143.643 39.9427 143.64 39.9598 143.64C39.9769 143.64 39.9938 143.643 40.0095 143.65C40.0253 143.657 40.0396 143.666 40.0516 143.678C40.0637 143.69 40.0732 143.705 40.0797 143.721C40.0862 143.736 40.0896 143.753 40.0895 143.77C40.0895 143.787 40.0861 143.804 40.0795 143.82ZM38.4695 142.82C38.2795 143.27 37.7595 145 37.5395 145.33C37.5222 145.361 37.495 145.386 37.4622 145.4C37.4293 145.414 37.3928 145.416 37.3583 145.407C37.3238 145.398 37.2934 145.378 37.2718 145.349C37.2503 145.321 37.2389 145.286 37.2395 145.25C37.4637 144.361 37.7997 143.504 38.2395 142.7C38.3295 142.59 38.5295 142.72 38.4695 142.86V142.82ZM35.5995 144.15C35.8174 143.342 36.0914 142.55 36.4195 141.78C36.4288 141.746 36.4514 141.716 36.4823 141.698C36.5133 141.681 36.55 141.676 36.5845 141.685C36.619 141.694 36.6484 141.717 36.6662 141.748C36.684 141.779 36.6888 141.816 36.6795 141.85C36.4926 142.678 36.2142 143.483 35.8495 144.25C35.8314 144.269 35.8088 144.282 35.7839 144.289C35.759 144.296 35.7327 144.297 35.7076 144.291C35.6824 144.285 35.6592 144.272 35.6403 144.255C35.6214 144.237 35.6073 144.215 35.5995 144.19V144.15ZM41.4095 158.7C40.5719 153.91 38.7687 149.341 36.1095 145.27L42.0095 150.21C42.0095 150.21 42.1395 149.99 42.3395 149.59C43.8645 150.649 45.4506 151.618 47.0895 152.49C45.1695 153.33 42.7595 156.81 41.4095 158.74V158.7ZM67.6695 154.84C64.5595 156.84 62.8095 157.01 59.0295 156.69C55.9152 156.325 52.9059 155.339 50.1795 153.79C48.8129 153.09 47.4562 152.353 46.1095 151.58C44.8795 150.87 43.6995 150.04 42.4495 149.37C44.0847 146.105 45.2046 142.607 45.7695 139C46.4995 139.27 54.3195 141.42 55.7095 141.82C55.8595 141.82 55.7795 141.91 57.7795 138.99C61.0995 142.74 65.1495 144.74 69.6895 146.99C70.9995 147.62 72.3095 148.26 73.6895 148.84C72.122 151.248 70.0722 153.305 67.6695 154.88V154.84ZM79.5495 148.33C78.0895 150.21 76.9995 149.81 74.6395 148.86C71.7395 147.7 68.9495 146.25 66.1895 144.86C63.4592 143.525 60.9527 141.774 58.7595 139.67C57.6795 138.57 56.0195 137.14 56.2995 135.49C56.4395 134.66 57.2295 131.7 57.2995 131.6C57.4995 130.8 58.1095 130.53 59.1295 130.8C59.1295 130.86 80.2195 143.93 80.8395 144.21C81.2395 145.62 80.4495 147.2 79.5495 148.37V148.33ZM65.4295 107.65C65.8023 107.146 66.1366 106.614 66.4295 106.06C68.9095 107.96 72.5295 108.06 75.5295 108.2C80.6995 108.38 81.8995 107.95 83.2395 108.07C83.8095 108.12 83.6195 108.13 84.1795 108.67C83.3295 109.2 80.4995 111.57 80.1795 112.31C80.1749 112.323 80.1739 112.336 80.1767 112.349C80.1796 112.362 80.1862 112.374 80.1956 112.384C80.2051 112.393 80.2171 112.4 80.2302 112.403C80.2433 112.406 80.257 112.405 80.2695 112.4C80.9895 112.27 83.8095 109.8 84.4795 108.99C85.0578 109.477 85.7432 109.82 86.4795 109.99C87.2495 110.16 89.2195 109.99 89.0895 108.79C89.3061 108.723 89.5045 108.607 89.6696 108.452C89.8347 108.296 89.9621 108.105 90.0422 107.893C90.1222 107.681 90.1528 107.453 90.1315 107.227C90.1103 107.002 90.0378 106.784 89.9195 106.59C90.2595 106.2 90.3195 105.02 89.5695 104.73C89.4195 104.5 89.3195 104.9 88.6795 105.05C88.5701 105.066 88.4589 105.066 88.3495 105.05C90.6295 103.19 95.2295 99.0501 100.35 94.3101C100.1 99.7201 99.3495 106.91 97.4095 111.59C92.9491 113.305 88.1838 114.084 83.4095 113.88C77.9195 113.68 68.9995 111.65 65.4295 107.65ZM95.1995 148.21C94.1095 149.04 92.9795 147.9 92.1395 147.13C91.2995 146.36 90.1395 144.97 90.1395 143.76C90.1395 142.83 107.08 122.08 107.38 121.84C108.26 121.14 108.38 121 109.31 122C109.97 122.75 112.01 126.13 112 127C112 130.55 95.9295 147.66 95.1995 148.21ZM101.35 152.11C101.331 151.478 101.241 150.851 101.08 150.24C100.669 149.806 100.201 149.429 99.6895 149.12C98.7695 148.38 97.8995 147.59 97.0295 146.79C101.23 142.37 106.81 136.32 110.12 131.21C114.48 137.44 114.56 140.68 116 148.03C117.16 153.96 118.25 159.8 118.89 165.81C117.74 166.17 110.83 169.43 110.12 169.86C106.64 164.86 102.55 158.06 101.35 152.11ZM117.49 172C117.88 171.78 119.35 170.88 119.74 170.74C119.84 170.74 119.95 170.84 119.88 170.93C119.279 171.605 118.481 172.073 117.6 172.27C117.566 172.275 117.532 172.269 117.503 172.252C117.474 172.235 117.451 172.209 117.438 172.178C117.426 172.147 117.424 172.113 117.433 172.08C117.442 172.048 117.462 172.02 117.49 172ZM118.01 173.61C118.739 173.239 119.487 172.906 120.25 172.61C120.4 172.61 120.54 172.77 120.41 172.88C119.713 173.343 118.942 173.681 118.13 173.88C118 173.92 117.84 173.65 118 173.58L118.01 173.61ZM120.83 175C120.198 175.572 119.487 176.051 118.72 176.42C118.56 176.47 118.42 176.25 118.55 176.14C119.22 175.635 119.925 175.177 120.66 174.77C120.78 174.7 120.91 174.87 120.83 175Z" fill="black"/>
<path d="M174.179 53.81L175.399 54.2C175.269 53.2044 174.769 52.2942 173.999 51.65C174.253 51.5369 174.491 51.3925 174.709 51.22C174.947 51.4959 175.227 51.7322 175.539 51.92C175.629 51.92 175.819 52.02 175.779 51.77C175.456 51.4451 175.076 51.1809 174.659 50.99C174.569 50.99 173.879 51.35 173.719 51.42C173.384 51.165 173.022 50.9471 172.639 50.77C172.639 50.61 172.689 49.89 172.639 49.72C172.856 49.6343 173.054 49.505 173.219 49.34C173.839 48.85 172.399 49.6 172.389 49.61C172.336 49.9406 172.312 50.2753 172.319 50.61C171.712 50.3553 171.073 50.1837 170.419 50.1C170.469 50 170.749 48.7 170.529 48.53C170.529 48.48 169.949 47.94 169.599 47.61C169.339 47.67 170.289 48.54 170.419 48.61C170.288 49.0791 170.218 49.563 170.209 50.05C169.693 50.0067 169.174 50.0438 168.669 50.16C168.559 49.16 167.539 48.95 166.669 49.41C166.669 49.41 165.399 45.17 165.109 44.29C165.039 44.1 165.009 44.13 165.049 44.29C165.239 45.15 166.439 49.43 166.499 49.49C166.398 49.5449 166.307 49.6159 166.229 49.7C165.133 48.1304 163.624 46.8948 161.869 46.13C160.809 45.71 160.599 45.7 161.649 46.26C163.385 47.1793 164.908 48.4536 166.119 50C165.719 50.71 165.799 52.06 166.569 52.32C166.472 52.7396 166.424 53.1693 166.429 53.6C165.997 53.5151 165.552 53.5151 165.119 53.6C165.059 53.48 164.219 52.32 164.289 52.6C164.289 52.77 164.949 53.75 165.209 53.78C165.617 53.8262 166.028 53.8462 166.439 53.84C166.481 54.5161 166.592 55.1862 166.769 55.84C166.395 55.7582 166.013 55.7147 165.629 55.71C165.424 55.8654 165.233 56.0395 165.059 56.23C164.519 56.88 165.259 56.65 165.729 55.95C167.459 56.3 166.489 55.72 167.309 57.16C167.054 57.4775 166.82 57.8116 166.609 58.16C166.682 58.5524 166.839 58.9244 167.069 59.25C167.179 59.55 167.549 59.42 167.239 58.88C167.121 58.6592 166.981 58.4514 166.819 58.26C167.106 58.0484 167.334 57.7659 167.479 57.44C167.794 57.9468 168.237 58.3611 168.764 58.6404C169.291 58.9198 169.883 59.0542 170.479 59.03L170.249 58.21C170.843 58.3954 171.478 58.4059 172.078 58.2401C172.677 58.0744 173.217 57.7395 173.631 57.2755C174.045 56.8115 174.318 56.2379 174.415 55.6234C174.512 55.0088 174.43 54.3793 174.179 53.81ZM166.639 52.09C166.44 51.9405 166.282 51.7418 166.183 51.5132C166.083 51.2847 166.044 51.0341 166.07 50.7862C166.097 50.5382 166.187 50.3013 166.332 50.0986C166.477 49.896 166.673 49.7345 166.899 49.63C167.172 49.5359 167.46 49.4918 167.749 49.5C167.934 49.5538 168.101 49.655 168.235 49.7936C168.368 49.9322 168.463 50.1034 168.509 50.29C168.073 50.4121 167.674 50.6404 167.347 50.9545C167.021 51.2687 166.778 51.6588 166.639 52.09ZM168.509 51.95L169.949 52.42C169.674 52.7784 169.292 53.0408 168.859 53.17L168.509 51.95ZM168.909 53.36C169.445 53.2486 169.925 52.9553 170.269 52.53L171.269 52.87C171.137 53.33 170.871 53.7398 170.503 54.0464C170.136 54.3531 169.685 54.5425 169.209 54.59L168.909 53.36ZM169.339 54.86C169.855 54.8076 170.344 54.6027 170.743 54.2714C171.142 53.9401 171.433 53.4975 171.579 53L173.009 53.47C172.939 54.2899 172.581 55.0586 172 55.6405C171.418 56.2224 170.649 56.5799 169.829 56.65L169.339 54.86ZM173.339 57.17C172.94 57.5694 172.439 57.8522 171.891 57.9879C171.343 58.1236 170.769 58.1071 170.229 57.94L169.899 56.78C170.598 56.7768 171.278 56.5567 171.846 56.15C172.414 55.7433 172.841 55.1702 173.069 54.51C173.214 54.1925 173.311 53.8556 173.359 53.51L173.769 53.64C174.055 54.2062 174.164 54.8448 174.084 55.4739C174.004 56.1029 173.738 56.6935 173.319 57.17H173.339ZM46.9191 132.22L47.0791 132.95C47.5949 132.572 47.9514 132.016 48.0791 131.39C48.2045 131.496 48.3464 131.58 48.4991 131.64C48.1691 132.28 48.7191 133.13 48.7391 131.56C48.6591 131.31 48.5991 131.38 48.1291 131.04C48.154 130.801 48.154 130.559 48.1291 130.32C48.2891 130.26 48.0591 130.32 48.7291 130C48.9791 130.32 50.1691 130.26 48.7291 129.74C48.4962 129.799 48.2736 129.894 48.0691 130.02C48.0119 129.625 47.9043 129.238 47.7491 128.87C47.9491 128.79 48.4591 128.76 48.6991 128.37C48.6991 128.24 48.9691 127.79 48.8391 127.47C48.6091 127.63 48.7591 127.68 48.5291 128.32C48.2176 128.374 47.921 128.493 47.6591 128.67C47.5167 128.394 47.3385 128.139 47.1291 127.91C47.2375 127.816 47.3205 127.697 47.3704 127.563C47.4203 127.429 47.4355 127.284 47.4145 127.142C47.3936 127.001 47.3372 126.867 47.2506 126.753C47.164 126.639 47.05 126.548 46.9191 126.49C47.6791 125.56 49.1591 124.21 49.7591 123.3C48.621 124.182 47.6113 125.219 46.7591 126.38H46.6191C47.1391 125.38 47.5291 123.05 46.9491 122.13C47.064 123.563 46.8626 125.004 46.3591 126.35C45.8291 126.35 45.0491 126.9 45.1891 127.42C44.1091 127.74 44.8591 128.02 44.0891 126.99C44.2991 126.79 44.6191 125.42 43.9291 126.93C43.8191 127.14 44.0591 127.45 44.2791 127.87C43.9491 128.097 43.6411 128.355 43.3591 128.64C43.2677 128.415 43.1642 128.194 43.0491 127.98C43.0491 127.98 41.7891 127.61 42.3891 128.05C42.5474 128.109 42.7118 128.149 42.8791 128.17C42.9539 128.404 43.0476 128.631 43.1591 128.85C43.013 129.015 42.8855 129.197 42.7791 129.39C42.4844 129.311 42.1739 129.311 41.8791 129.39C41.6291 130.21 41.1591 129.97 41.5491 130.24C41.7636 130.078 41.924 129.855 42.0091 129.6C42.2067 129.688 42.4258 129.716 42.6391 129.68C42.4668 130.024 42.3872 130.407 42.4083 130.791C42.4293 131.175 42.5503 131.547 42.7591 131.87L43.1191 131.5C43.4391 133.08 45.9991 133.68 46.9191 132.22ZM46.9991 126.9C47.086 127.027 47.1325 127.177 47.1325 127.33C47.1325 127.484 47.086 127.633 46.9991 127.76C46.7944 127.565 46.546 127.421 46.2747 127.341C46.0034 127.261 45.717 127.247 45.4391 127.3C45.4709 127.134 45.5491 126.981 45.6648 126.858C45.7804 126.735 45.9287 126.647 46.0922 126.605C46.2558 126.563 46.4279 126.569 46.5885 126.621C46.7491 126.673 46.8915 126.77 46.9991 126.9ZM46.2391 129.24C45.9648 129.191 45.7071 129.074 45.4891 128.9L46.0391 128.33L46.2391 129.24ZM45.3491 129.04C45.6136 129.322 45.9664 129.505 46.3491 129.56L46.4791 130.15C46.1846 130.23 45.8728 130.218 45.5851 130.117C45.2974 130.015 45.0477 129.828 44.8691 129.58L45.3491 129.04ZM44.6291 129.79C44.84 130.073 45.1314 130.285 45.4651 130.399C45.7988 130.513 46.1592 130.524 46.4991 130.43L46.6891 131.31C46.2096 131.538 45.6652 131.589 45.1514 131.456C44.6376 131.322 44.1872 131.012 43.8791 130.58L44.6291 129.79ZM44.6991 132.71C44.3453 132.619 44.0232 132.433 43.7675 132.172C43.5119 131.912 43.3326 131.586 43.2491 131.23L43.7391 130.71C44.0442 131.199 44.517 131.561 45.0693 131.726C45.6215 131.892 46.2152 131.851 46.7391 131.61V131.78C46.5256 132.106 46.2252 132.366 45.8718 132.53C45.5184 132.695 45.1261 132.757 44.7391 132.71H44.6991ZM34.1791 64.93C34.1562 65.2069 34.2139 65.4845 34.3452 65.7294C34.4765 65.9743 34.6758 66.1759 34.9191 66.31C34.6216 66.6523 34.3879 67.0452 34.2291 67.47C33.3691 72.09 36.2291 72.94 36.2291 72.94L36.3391 69.33C36.5991 71.54 38.3991 73.93 39.9191 71.14C42.1291 72.14 42.5191 69.27 41.2491 67.92C41.6291 67.8015 41.9705 67.5835 42.2378 67.2886C42.5051 66.9936 42.6886 66.6325 42.7692 66.2427C42.8498 65.8529 42.8246 65.4486 42.6963 65.0718C42.5679 64.695 42.341 64.3595 42.0391 64.1C43.3191 63.34 43.8291 60.49 41.5491 60.84C40.5491 56.62 37.3191 61.04 36.7091 63.47L37.7091 57.47C37.7091 57.47 34.7091 57.74 34.6291 62.47C34.7061 62.9267 34.8617 63.3666 35.0891 63.77C34.9182 63.8124 34.7596 63.8942 34.6259 64.0088C34.4922 64.1234 34.3872 64.2676 34.3191 64.43C31.8021 63.5055 29.6823 61.739 28.3191 59.43C29.2691 62.14 31.6691 63.67 34.2291 64.73C32.1691 64.61 28.9291 64.5 27.6091 66.11C29.6491 64.81 31.7891 64.83 34.1791 64.93ZM41.7191 69.3C42.1091 70.59 41.1991 71.42 40.0091 70.93C40.3291 69.11 37.9391 66.49 36.7691 65.58C38.7091 66.07 40.8791 67.21 41.7191 69.3ZM38.1391 65.8C37.6899 65.6345 37.2285 65.5041 36.7591 65.41C37.2318 65.4454 37.7065 65.4454 38.1791 65.41C38.1591 65.5 38.2491 65.51 38.1391 65.8ZM38.3791 65.42C38.7146 65.3953 39.0485 65.3519 39.3791 65.29C39.4227 65.4565 39.4226 65.6314 39.3788 65.7978C39.335 65.9643 39.249 66.1166 39.1291 66.24C38.8634 66.1006 38.5895 65.977 38.3091 65.87C38.3607 65.8085 38.3945 65.7341 38.4069 65.6548C38.4192 65.5755 38.4096 65.4943 38.3791 65.42ZM39.5791 65.25C39.9762 65.1664 40.3645 65.0459 40.7391 64.89C40.9391 65.69 41.1591 66.44 40.3791 67.01C40.0617 66.7608 39.7276 66.5336 39.3791 66.33C39.5316 66.2004 39.6347 66.0223 39.6711 65.8256C39.7075 65.6289 39.6751 65.4256 39.5791 65.25ZM42.5791 65.76C42.5609 66.1977 42.4148 66.6204 42.1589 66.9758C41.903 67.3313 41.5484 67.604 41.1391 67.76C40.9463 67.5272 40.732 67.3129 40.4991 67.12C41.2591 66.83 41.3191 65.56 40.9091 64.81C41.2641 64.6566 41.5997 64.4619 41.9091 64.23C42.2764 64.6652 42.5123 65.1958 42.5891 65.76H42.5791ZM40.8791 64.48C39.6368 65.0849 38.2577 65.3539 36.8791 65.26C38.2691 64.71 41.2891 62.86 41.5791 61.03C44.2691 61.1 42.4791 64 40.8891 64.48H40.8791ZM36.4991 65.11C39.1591 54.67 45.4991 61.57 36.5891 65.25H36.4991V65.11ZM36.4991 65.51C36.7591 65.59 41.4991 70.26 39.0491 71.9C36.2291 73.15 36.4491 66.67 36.4991 65.51ZM35.2591 63.92C35.5452 64.3691 35.9073 64.765 36.3291 65.09C36.3169 65.1291 36.3169 65.171 36.3291 65.21C35.8946 65.4305 35.4993 65.7211 35.1591 66.07C34.1491 65.93 34.2391 64.12 35.2591 63.92ZM158.999 56.91C158.995 56.1478 158.918 55.3877 158.769 54.64C158.769 54.51 158.549 54.54 158.549 54.64C158.532 55.3897 158.582 56.1393 158.699 56.88C158.749 57 158.999 57.08 158.999 56.91ZM155.219 61.86C155.206 61.0944 155.126 60.3315 154.979 59.58C154.979 59.45 154.759 59.49 154.759 59.58C154.747 60.3329 154.797 61.0854 154.909 61.83C154.999 62 155.179 62 155.219 61.86ZM187.829 61.66C187.816 60.8945 187.736 60.1315 187.589 59.38C187.589 59.26 187.369 59.29 187.369 59.38C187.355 60.1333 187.409 60.8863 187.529 61.63C187.579 61.79 187.799 61.83 187.829 61.66ZM189.999 61.66C189.986 60.8945 189.906 60.1315 189.759 59.38C189.759 59.26 189.539 59.29 189.539 59.38C189.522 60.133 189.572 60.886 189.689 61.63C189.759 61.79 189.999 61.83 189.999 61.66ZM181.139 60.15C181.127 60.9029 181.177 61.6554 181.289 62.4C181.339 62.53 181.559 62.56 181.599 62.4C181.587 61.6344 181.507 60.8714 181.359 60.12C181.339 60 181.139 60 181.139 60.15ZM181.199 57.35C181.192 56.5841 181.112 55.8206 180.959 55.07C180.959 54.94 180.739 54.97 180.739 55.07C180.726 55.8233 180.779 56.5763 180.899 57.32C180.939 57.47 181.159 57.51 181.199 57.35ZM178.179 57.35C178.172 56.5841 178.092 55.8206 177.939 55.07C177.939 54.94 177.719 54.97 177.719 55.07C177.706 55.8233 177.759 56.5763 177.879 57.32C177.929 57.47 178.149 57.51 178.179 57.35ZM189.919 56.48C189.911 55.7174 189.831 54.9573 189.679 54.21C189.679 54.08 189.459 54.11 189.459 54.21C189.445 54.9633 189.499 55.7163 189.619 56.46C189.669 56.61 189.889 56.65 189.919 56.48ZM187.639 51.42C187.631 50.6574 187.551 49.8973 187.399 49.15C187.399 49.02 187.179 49.05 187.179 49.15C187.165 49.9 187.219 50.6497 187.339 51.39C187.389 51.55 187.609 51.59 187.639 51.42ZM184.209 49.18C184.187 49.9298 184.237 50.6799 184.359 51.42C184.359 51.55 184.629 51.59 184.659 51.42C184.65 50.658 184.573 49.8983 184.429 49.15C184.427 49.1356 184.422 49.1217 184.415 49.1091C184.408 49.0965 184.398 49.0854 184.386 49.0766C184.375 49.0678 184.361 49.0614 184.347 49.0576C184.333 49.0539 184.319 49.053 184.304 49.055C184.29 49.057 184.276 49.0618 184.263 49.0691C184.251 49.0765 184.24 49.0862 184.231 49.0978C184.222 49.1094 184.215 49.1227 184.212 49.1368C184.208 49.1509 184.207 49.1656 184.209 49.18ZM177.759 52.08C177.75 51.3147 177.673 50.5518 177.529 49.8C177.529 49.67 177.309 49.71 177.309 49.8C177.287 50.5531 177.337 51.3066 177.459 52.05C177.509 52.21 177.729 52.24 177.759 52.08ZM181.099 46.27C181.09 45.508 181.013 44.7483 180.869 44C180.869 43.9708 180.858 43.9429 180.837 43.9222C180.816 43.9016 180.788 43.89 180.759 43.89C180.73 43.89 180.702 43.9016 180.681 43.9222C180.661 43.9429 180.649 43.9708 180.649 44C180.632 44.7497 180.682 45.4993 180.799 46.24C180.849 46.4 181.069 46.44 181.099 46.27ZM174.269 46.27C174.247 45.5068 174.156 44.7472 173.999 44C173.999 43.87 173.779 43.9 173.779 44C173.767 44.7495 173.817 45.4988 173.929 46.24C173.999 46.4 174.229 46.44 174.269 46.27ZM141.599 71.92C141.585 72.6733 141.639 73.4263 141.759 74.17C141.809 74.3 142.029 74.34 142.059 74.17C142.051 73.4074 141.971 72.6473 141.819 71.9C141.799 71.77 141.599 71.8 141.599 71.92ZM147.809 71.43C147.795 72.1833 147.849 72.9363 147.969 73.68C148.019 73.81 148.239 73.85 148.269 73.68C148.247 72.9135 148.156 72.1506 147.999 71.4C147.986 71.387 147.97 71.3772 147.952 71.3716C147.934 71.3659 147.915 71.3645 147.897 71.3674C147.878 71.3703 147.861 71.3775 147.845 71.3883C147.83 71.3992 147.818 71.4135 147.809 71.43ZM151.689 71.26C151.675 72.0133 151.729 72.7663 151.849 73.51C151.899 73.64 152.119 73.67 152.149 73.51C152.141 72.7441 152.061 71.9807 151.909 71.23C151.889 71.1 151.689 71.14 151.689 71.26ZM147.579 65.63C147.579 65.5 147.359 65.54 147.359 65.63C147.345 66.3833 147.399 67.1363 147.519 67.88C147.519 68.01 147.789 68.04 147.819 67.88C147.81 67.1242 147.729 66.3709 147.579 65.63ZM144.919 67.91C144.915 67.1444 144.838 66.381 144.689 65.63C144.689 65.5 144.469 65.54 144.469 65.63C144.452 66.383 144.502 67.136 144.619 67.88C144.669 68 144.889 68.07 144.919 67.91ZM155.379 67.42C155.391 67.4506 155.411 67.477 155.438 67.4957C155.465 67.5143 155.496 67.5243 155.529 67.5243C155.562 67.5243 155.594 67.5143 155.62 67.4957C155.647 67.477 155.668 67.4506 155.679 67.42C155.671 66.6574 155.591 65.8973 155.439 65.15C155.439 65.02 155.219 65.05 155.219 65.15C155.204 65.91 155.257 66.6697 155.379 67.42ZM164.239 67.42C164.23 66.658 164.153 65.8984 164.009 65.15C164.009 65.1208 163.998 65.0929 163.977 65.0722C163.956 65.0516 163.928 65.04 163.899 65.04C163.87 65.04 163.842 65.0516 163.821 65.0722C163.801 65.0929 163.789 65.1208 163.789 65.15C163.767 65.8998 163.818 66.6499 163.939 67.39C163.999 67.55 164.209 67.59 164.239 67.42ZM164.149 70.6C164.127 71.3531 164.177 72.1066 164.299 72.85C164.299 72.98 164.569 73.01 164.599 72.85C164.59 72.0847 164.513 71.3217 164.369 70.57C164.339 70.44 164.149 70.48 164.149 70.6ZM159.429 71.13C159.412 71.883 159.462 72.636 159.579 73.38C159.579 73.51 159.849 73.54 159.879 73.38C159.87 72.6147 159.793 71.8517 159.649 71.1C159.629 71 159.429 71 159.429 71.13ZM172.429 70.6C172.412 71.353 172.462 72.106 172.579 72.85C172.579 72.98 172.849 73.01 172.879 72.85C172.87 72.0847 172.793 71.3217 172.649 70.57C172.619 70.44 172.429 70.48 172.429 70.6ZM172.469 67.42C172.46 66.658 172.383 65.8984 172.239 65.15C172.239 65.02 172.019 65.05 172.019 65.15C172.002 65.8997 172.053 66.6493 172.169 67.39C172.219 67.55 172.439 67.59 172.469 67.42ZM177.819 64.64C177.802 65.393 177.852 66.146 177.969 66.89C178.019 67.02 178.239 67.06 178.279 66.89C178.266 66.1245 178.186 65.3615 178.039 64.61C177.999 64.49 177.819 64.52 177.819 64.64ZM181.629 64.88C181.617 65.6295 181.667 66.3788 181.779 67.12C181.829 67.25 182.049 67.29 182.079 67.12C182.075 66.3578 181.998 65.5977 181.849 64.85C181.829 64.72 181.629 64.75 181.629 64.88ZM178.499 70.36C178.485 71.11 178.539 71.8597 178.659 72.6C178.659 72.73 178.929 72.77 178.959 72.6C178.946 71.8377 178.866 71.0781 178.719 70.33C178.699 70.2 178.499 70.23 178.499 70.36ZM184.749 70.16C184.736 70.9133 184.789 71.6663 184.909 72.41C184.959 72.54 185.179 72.57 185.209 72.41C185.202 71.6441 185.122 70.8806 184.969 70.13C184.999 70 184.749 70 184.749 70.16ZM187.939 70C187.922 70.7497 187.973 71.4993 188.089 72.24C188.089 72.37 188.359 72.41 188.389 72.24C188.385 71.4778 188.308 70.7177 188.159 69.97C188.139 69.87 187.939 69.9 187.939 70ZM187.999 66.81C187.99 66.0447 187.913 65.2817 187.769 64.53C187.762 64.5052 187.747 64.4835 187.726 64.4681C187.705 64.4526 187.68 64.4443 187.654 64.4443C187.628 64.4443 187.603 64.4526 187.582 64.4681C187.562 64.4835 187.547 64.5052 187.539 64.53C187.526 65.2833 187.579 66.0363 187.699 66.78C187.769 66.93 187.999 67 187.999 66.81ZM189.889 182.06C194.629 178.12 194.889 171.5 194.999 165.71C193.999 165.52 188.189 168.19 187.759 168.2C189.342 166.341 190.42 164.106 190.889 161.71C191.469 159.88 193.259 149.64 191.689 150.91C187.499 153.51 183.799 156.01 179.689 158.91C179.689 157.96 179.099 148.79 177.689 145.79C176.759 145.14 175.751 144.609 174.689 144.21C174.799 144.04 177.459 141.73 177.059 141.82C176.458 138.697 175.686 135.609 174.749 132.57C167.929 138.42 164.999 149 163.999 158C163.669 157 161.659 149.64 159.939 147.88C156.489 153.49 155.329 161.01 156.019 167.58C153.879 166.58 138.129 168.1 142.259 169.82C146.209 173.31 150.259 176.43 152.929 180.82C151.689 180.82 147.009 180.73 143.219 180.76C141.681 180.664 140.138 180.664 138.599 180.76C143.543 181.147 148.505 181.234 153.459 181.02C150.879 176.36 145.729 172.51 141.779 169.09C146.393 167.665 151.254 167.222 156.049 167.79C156.189 168.01 156.049 169.5 156.499 169.32C155.543 162.089 156.761 154.736 159.999 148.2C161.589 150.73 164.139 158.9 164.589 162.82C165.119 161.92 164.199 159.82 164.089 158.53C165.689 149.44 167.199 141.16 173.929 133.41C175.119 132.25 174.929 133.98 175.689 136.32C176.173 138.115 176.563 139.934 176.859 141.77C176.969 141.77 175.429 143.15 174.639 143.87C173.639 144.77 177.779 145.59 177.689 146.39C178.583 150.547 179.191 154.76 179.509 159C177.659 160.48 174.739 162.57 173.939 164.4C178.939 158.88 185.859 154.96 191.999 150.89C192.209 157.07 190.999 164.77 187.259 168.39C179.549 172.39 195.199 165.54 194.689 165.88H194.749C194.809 171.88 193.619 179.54 189.399 182.05C189.259 182.14 177.979 182.22 181.949 182.42C184.699 182.35 193.619 182.27 193.689 181.99C192.719 181.66 191.089 182.07 189.889 182.06Z" fill="black"/>
<path d="M171.129 181.49C174.799 167.23 179.849 164.6 186.409 158.1C178.119 164.55 172.309 172.83 171.129 181.49ZM170.999 144.67C170.569 150.25 168.599 155.67 168.799 161.44C168.669 166.77 170.129 171.83 170.159 176.82C170.639 171.61 168.739 166.25 169.039 160.95C168.749 155.56 171.169 149.6 170.999 144.67ZM159.729 158.86C160.449 162.61 164.139 176.6 165.729 179.86C166.309 180.71 165.159 177.72 164.949 176.86C163.139 171.37 160.749 161.22 159.729 158.86ZM148.939 170.32C152.619 173.39 158.259 177.11 161.029 181.41C158.399 176.72 153.249 173.37 148.939 170.32ZM96.6593 172.19C94.1693 169.47 94.9193 168.62 92.9793 171.56C92.8893 171.33 85.4893 167.68 86.9793 169.37C94.6993 176.55 89.1793 170.68 87.3793 169.37C95.0593 171.81 91.5393 173.23 94.4993 169.92C95.0993 170.17 96.4093 173.13 96.7693 172.2C97.0393 171.74 97.2993 171.2 97.6193 171.36C97.9293 172.08 98.6193 171.83 99.3893 171.87C100.389 171.73 102.089 172.19 102.619 171.75C101.079 171.802 99.5362 171.722 98.0093 171.51C97.4293 169.63 97.1293 171.76 96.6593 172.19ZM40.5793 174.38C42.0493 171.26 49.0193 160.23 49.8593 157.96C46.5193 162.5 41.6693 170.49 40.5793 174.38ZM35.9993 165.65C33.8793 160.38 33.3893 153.65 31.5093 148.84C32.9993 154.27 33.5993 160.73 35.9993 165.65ZM31.9093 171C28.4593 167.87 24.7093 164.69 21.1093 161.64C24.4633 165.033 28.074 168.162 31.9093 171ZM42.8993 100.56C42.8993 100.42 16.5893 100.06 12.0593 99.73C11.9693 99.73 11.8893 99.82 11.8793 99.91C11.7893 103.26 12.1293 126.76 12.2293 126.76C17.2893 126.84 37.6193 126.37 42.6693 125.99C42.8393 126 42.8493 127.35 42.8993 100.56ZM42.4593 125.69C37.4593 125.76 17.5693 126.01 12.5693 126.54C12.1993 118.54 11.9693 100.65 12.2293 100.07C12.3593 100.16 41.9293 100.96 42.5293 100.84C42.4993 109.12 42.4393 117.41 42.4593 125.69ZM47.5493 105.81C47.5401 105.048 47.4631 104.288 47.3193 103.54C47.3193 103.511 47.3077 103.483 47.287 103.462C47.2664 103.442 47.2384 103.43 47.2093 103.43C47.1801 103.43 47.1521 103.442 47.1315 103.462C47.1109 103.483 47.0993 103.511 47.0993 103.54C47.0771 104.293 47.1273 105.047 47.2493 105.79C47.2993 105.94 47.5193 106 47.5493 105.81ZM15.2393 132.88C15.2221 133.633 15.2723 134.386 15.3893 135.13C15.3893 135.26 15.6593 135.29 15.6993 135.13C15.6871 134.364 15.6068 133.601 15.4593 132.85C15.4393 132.72 15.2393 132.75 15.2393 132.88ZM20.3893 132.88C20.3671 133.633 20.4173 134.387 20.5393 135.13C20.5893 135.26 20.8093 135.29 20.8393 135.13C20.8305 134.365 20.7536 133.602 20.6093 132.85C20.5893 132.72 20.3893 132.75 20.3893 132.88ZM21.6593 132.73C21.6403 133.48 21.6939 134.23 21.8193 134.97C21.8193 135.1 22.0893 135.14 22.1193 134.97C22.1116 134.207 22.0312 133.447 21.8793 132.7C21.8593 132.57 21.6593 132.6 21.6593 132.73ZM58.1093 121.74C58.1022 120.974 58.0218 120.211 57.8693 119.46C57.8693 119.33 57.6493 119.37 57.6493 119.46C57.6357 120.213 57.6893 120.966 57.8093 121.71C57.8593 121.87 58.0793 121.9 58.1093 121.74ZM60.3393 117.92C60.3316 117.157 60.2512 116.397 60.0993 115.65C60.0993 115.52 59.8793 115.55 59.8793 115.65C59.8653 116.4 59.9188 117.15 60.0393 117.89C60.0893 118.05 60.3093 118.09 60.3393 117.92ZM49.7193 105.72C51.2593 106 51.3393 104.2 50.2893 103.45C49.6193 102.99 48.9393 104.07 48.8593 104.45C48.8116 104.732 48.8745 105.021 49.0346 105.257C49.1948 105.494 49.44 105.66 49.7193 105.72ZM49.1893 104.28C49.7793 102.98 50.7493 104.28 50.6393 104.8C50.6131 104.904 50.5658 105.001 50.5003 105.086C50.4349 105.171 50.3527 105.241 50.2589 105.292C50.1651 105.344 50.0617 105.376 49.9551 105.386C49.8485 105.396 49.741 105.383 49.6393 105.35C49.5385 105.31 49.4468 105.251 49.3693 105.176C49.2919 105.1 49.2304 105.01 49.1884 104.91C49.1465 104.81 49.125 104.703 49.1251 104.595C49.1252 104.487 49.1471 104.38 49.1893 104.28ZM59.9993 121.7C60.1451 121.724 60.2943 121.719 60.4382 121.686C60.5822 121.652 60.7181 121.59 60.838 121.504C60.9579 121.417 61.0595 121.308 61.137 121.182C61.2144 121.056 61.2662 120.916 61.2893 120.77C61.3493 120.24 59.9493 118.01 59.1493 120.38C59.1126 120.523 59.1058 120.672 59.1293 120.817C59.1528 120.963 59.2062 121.102 59.286 121.226C59.3658 121.35 59.4703 121.456 59.5931 121.537C59.7158 121.619 59.8541 121.674 59.9993 121.7ZM59.4693 120.25C59.9493 119.05 61.0393 120.25 60.9193 120.77C60.8958 120.875 60.8502 120.975 60.7855 121.061C60.7207 121.147 60.6382 121.219 60.5436 121.271C60.449 121.323 60.3444 121.354 60.2367 121.363C60.1291 121.371 60.0208 121.357 59.9193 121.32C59.7248 121.23 59.573 121.068 59.4964 120.868C59.4197 120.669 59.4244 120.447 59.5093 120.25H59.4693ZM17.2093 133.62C17.1726 133.763 17.1662 133.913 17.1903 134.059C17.2145 134.205 17.2687 134.345 17.3495 134.469C17.4303 134.593 17.536 134.699 17.6599 134.78C17.7838 134.861 17.9232 134.916 18.0693 134.94C18.2145 134.964 18.3631 134.959 18.5064 134.925C18.6498 134.892 18.7849 134.83 18.904 134.743C19.0232 134.656 19.1239 134.547 19.2003 134.421C19.2768 134.295 19.3274 134.156 19.3493 134.01C19.4193 133.47 18.0893 131.56 17.2093 133.62ZM18.9993 134C18.9744 134.105 18.9279 134.203 18.8628 134.288C18.7977 134.374 18.7154 134.445 18.6212 134.497C18.527 134.548 18.423 134.58 18.3159 134.589C18.2088 134.598 18.1009 134.585 17.9993 134.55C17.8968 134.513 17.803 134.455 17.7237 134.38C17.6444 134.305 17.5813 134.215 17.5382 134.114C17.4951 134.014 17.473 133.906 17.4732 133.797C17.4734 133.688 17.4959 133.58 17.5393 133.48C18.0893 132.37 19.0993 133.46 18.9993 134Z" fill="black"/>
<path d="M38.1495 105C34.4595 104.95 19.6695 104.51 16.0295 104.82V104.89C19.6595 105.3 34.4595 105.27 38.1495 105.32C38.192 105.32 38.2327 105.303 38.2627 105.273C38.2927 105.243 38.3095 105.203 38.3095 105.16C38.3095 105.118 38.2927 105.077 38.2627 105.047C38.2327 105.017 38.192 105 38.1495 105ZM38.5095 109.62C34.8195 109.57 20.0195 109.13 16.3895 109.45V109.51C20.0095 109.92 34.8195 109.89 38.5095 109.94C38.552 109.94 38.5927 109.923 38.6227 109.893C38.6527 109.863 38.6695 109.823 38.6695 109.78C38.6695 109.738 38.6527 109.697 38.6227 109.667C38.5927 109.637 38.552 109.62 38.5095 109.62ZM38.8095 114.87C35.1295 114.82 20.3295 114.38 16.6895 114.7V114.76C20.3195 115.18 35.1295 115.14 38.8095 115.19C38.852 115.19 38.8927 115.173 38.9227 115.143C38.9527 115.113 38.9695 115.073 38.9695 115.03C38.9695 114.988 38.9527 114.947 38.9227 114.917C38.8927 114.887 38.852 114.87 38.8095 114.87ZM38.8095 120.13C35.1295 120.13 20.3295 119.64 16.6895 119.96V120.02C20.3095 120.43 35.1295 120.4 38.8095 120.45C38.852 120.45 38.8927 120.433 38.9227 120.403C38.9527 120.373 38.9695 120.333 38.9695 120.29C38.9695 120.248 38.9527 120.207 38.9227 120.177C38.8927 120.147 38.852 120.13 38.8095 120.13ZM92.3395 61.7402C92.325 61.7342 92.3089 61.7333 92.2939 61.7376C92.2788 61.7419 92.2656 61.7511 92.2563 61.7638C92.2471 61.7764 92.2424 61.7918 92.243 61.8075C92.2436 61.8232 92.2494 61.8382 92.2595 61.8502C92.7256 62.3446 93.238 62.7933 93.7895 63.1902C93.8695 63.1902 93.9695 63.1902 93.9095 63.0702C93.4305 62.577 92.9047 62.1316 92.3395 61.7402ZM93.7795 55.3602C93.7795 55.3602 93.8795 55.3602 93.8495 55.2902C93.449 54.8245 92.9883 54.4142 92.4795 54.0702C92.4095 54.0702 92.3395 54.0702 92.3895 54.1802C92.8004 54.6315 93.2675 55.028 93.7795 55.3602ZM97.9995 56.0002C98.3299 55.9472 98.6462 55.8281 98.9295 55.6502C98.9895 55.6502 98.9295 55.5102 98.9295 55.5202C98.5779 55.5509 98.2369 55.6566 97.9295 55.8302C97.8595 55.8902 97.9295 56.0002 97.9995 56.0002ZM92.8795 56.3102C92.787 56.6861 92.7633 57.0758 92.8095 57.4602C92.8095 57.5302 92.9295 57.5602 92.9695 57.4602C93.0463 57.074 93.0463 56.6764 92.9695 56.2902C92.9547 56.282 92.9373 56.2796 92.9208 56.2833C92.9042 56.2869 92.8896 56.2965 92.8795 56.3102ZM98.5795 57.0802C98.4856 57.4069 98.4856 57.7535 98.5795 58.0802C98.5861 58.0885 98.5944 58.0952 98.604 58.0998C98.6135 58.1045 98.6239 58.1069 98.6345 58.1069C98.6451 58.1069 98.6556 58.1045 98.6651 58.0998C98.6746 58.0952 98.683 58.0885 98.6895 58.0802C98.7834 57.7535 98.7834 57.4069 98.6895 57.0802C98.6738 57.068 98.6544 57.0614 98.6345 57.0614C98.6146 57.0614 98.5953 57.068 98.5795 57.0802ZM95.9295 57.8102C95.9295 58.1702 96.3995 60.4502 95.6195 60.1502C95.4895 60.1502 95.4195 60.3302 95.5595 60.3702C95.6995 60.4102 96.2995 60.4802 96.3795 60.1002C96.3311 59.3226 96.2038 58.552 95.9995 57.8002C95.9995 57.8002 95.9295 57.7602 95.9295 57.8102ZM59.5295 30.1802C60.1495 33.5602 62.3595 29.6702 62.7195 28.2402C63.7195 30.7102 66.7995 30.4902 67.2695 28.0802C68.0895 28.7802 70.8095 28.9702 70.2695 27.1302C71.2695 26.9902 71.5395 25.5702 71.0395 24.5802H71.6395C71.4048 23.8979 70.9684 23.3031 70.388 22.8745C69.8076 22.4459 69.1106 22.2038 68.3895 22.1802C67.299 22.0256 66.1895 22.2745 65.2695 22.8802C65.1947 22.6545 65.0636 22.4517 64.8886 22.2907C64.7137 22.1298 64.5006 22.016 64.2695 21.9602C64.2749 21.8569 64.2749 21.7534 64.2695 21.6502C64.2095 20.5002 64.1695 16.5702 66.5795 15.2802C67.1695 15.0402 66.9995 14.9802 66.4295 15.2202C64.1595 16.2202 63.9195 19.5102 64.0795 21.7802C63.6628 20.178 62.9872 18.6546 62.0795 17.2702C61.6995 16.7602 60.7595 15.9102 60.6995 16.0502C60.6395 16.1902 61.5995 16.8402 61.9395 17.3402C62.7758 18.7938 63.3893 20.3646 63.7595 22.0002C63.4735 22.0956 63.2113 22.2511 62.9905 22.4564C62.7697 22.6617 62.5955 22.9119 62.4795 23.1902C60.5695 22.4902 57.0595 23.7002 57.0195 26.6102L60.1595 25.7302C58.3895 26.8502 56.1795 30.8202 59.5295 30.1802ZM62.4595 28.4502C62.0695 29.6302 60.3495 32.8602 59.6195 30.1502C61.1995 29.5902 62.2595 28.0102 63.0995 26.5102C63.0895 26.5602 62.5095 28.3202 62.4595 28.4502ZM65.4595 26.3002C65.6847 26.6357 65.9354 26.9533 66.2095 27.2502C65.4495 28.4102 63.9595 28.0702 63.0195 27.3802C63.1395 27.0502 63.2595 26.7102 63.3695 26.3802C63.5083 26.5247 63.6761 26.6383 63.8619 26.7134C64.0477 26.7884 64.2472 26.8234 64.4475 26.8158C64.6477 26.8082 64.8441 26.7584 65.0237 26.6695C65.2033 26.5806 65.3621 26.4548 65.4895 26.3002H65.4595ZM63.4595 26.2302C63.5463 25.9282 63.6131 25.6209 63.6595 25.3102C63.8327 25.4846 64.064 25.5892 64.3093 25.6039C64.5546 25.6187 64.7968 25.5426 64.9895 25.3902C65.1126 25.6409 65.2494 25.8846 65.3995 26.1202C65.278 26.3236 65.0918 26.4805 64.8706 26.5657C64.6495 26.6509 64.4062 26.6595 64.1795 26.5902C63.924 26.4893 63.6766 26.3689 63.4395 26.2302H63.4595ZM64.5195 29.7302C64.1298 29.5929 63.7752 29.3711 63.4813 29.0807C63.1874 28.7902 62.9614 28.4383 62.8195 28.0502C62.8695 27.9302 62.9295 27.7502 63.0395 27.4702C63.2436 27.7228 63.503 27.9252 63.7977 28.0617C64.0924 28.1983 64.4145 28.2652 64.7392 28.2575C65.0639 28.2498 65.3825 28.1675 65.6704 28.0172C65.9582 27.8668 66.2077 27.6523 66.3995 27.3902C66.6087 27.5901 66.8327 27.774 67.0695 27.9402C67.0354 28.2343 66.9392 28.5179 66.7872 28.772C66.6352 29.0262 66.431 29.2451 66.188 29.4144C65.945 29.5836 65.6688 29.6993 65.3777 29.7537C65.0866 29.8082 64.7873 29.8002 64.4995 29.7302H64.5195ZM67.4195 27.8702C65.8895 27.2102 64.7295 24.5802 64.7195 24.5702H64.7795C65.4116 25.3533 66.2051 25.991 67.1059 26.4396C68.0067 26.8883 68.9937 27.1375 69.9995 27.1702C70.5995 29.1102 67.8495 28.0602 67.3995 27.8702H67.4195ZM70.6395 24.5702C72.3195 27.7802 67.6395 27.5002 64.8895 24.5702H70.6395ZM63.8695 22.2002C64.5195 22.1202 64.8695 22.5202 65.0495 23.0302C64.5899 23.4287 64.2796 23.9718 64.1695 24.5702H64.5995L64.8495 25.1502C64.5395 25.5502 64.0495 25.4302 63.6595 25.2102C63.7195 25.0402 63.7695 24.8602 63.8295 24.6802L64.1695 24.5902C63.87 23.9844 63.3571 23.5108 62.7295 23.2602C62.9995 22.7702 63.2195 22.2802 63.8695 22.2002ZM63.5695 24.7502C62.8195 26.7502 61.2595 30.0602 58.8095 30.0202C56.6095 29.6402 59.6595 26.0702 60.4895 25.6202L63.5695 24.7502ZM145 71.5002C144.745 71.4465 144.48 71.4729 144.241 71.5757C144.002 71.6786 143.801 71.8528 143.665 72.0745C143.529 72.2962 143.465 72.5546 143.482 72.8141C143.499 73.0736 143.595 73.3216 143.759 73.524C143.922 73.7265 144.144 73.8734 144.394 73.9447C144.644 74.0161 144.91 74.0083 145.156 73.9224C145.401 73.8365 145.614 73.6768 145.765 73.4651C145.916 73.2535 145.998 73.0002 146 72.7402C146.025 72.4444 145.935 72.1501 145.749 71.919C145.563 71.6879 145.294 71.5378 145 71.5002ZM145 73.6402C144.814 73.6688 144.624 73.6398 144.455 73.5572C144.286 73.4745 144.147 73.3422 144.055 73.178C143.964 73.0137 143.925 72.8255 143.944 72.6385C143.963 72.4515 144.039 72.2748 144.161 72.1322C144.283 71.9895 144.446 71.8877 144.628 71.8404C144.81 71.7932 145.002 71.8028 145.178 71.8679C145.355 71.933 145.507 72.0506 145.614 72.2047C145.722 72.3589 145.779 72.5423 145.78 72.7302C145.796 72.9541 145.723 73.1755 145.577 73.346C145.431 73.5166 145.223 73.6223 145 73.6402ZM155.83 71.0002C155.575 70.9465 155.31 70.9729 155.071 71.0757C154.832 71.1786 154.631 71.3528 154.495 71.5745C154.359 71.7962 154.295 72.0546 154.312 72.3141C154.329 72.5736 154.425 72.8216 154.589 73.024C154.752 73.2265 154.974 73.3734 155.224 73.4447C155.474 73.5161 155.74 73.5083 155.986 73.4224C156.231 73.3365 156.444 73.1768 156.595 72.9651C156.746 72.7535 156.828 72.5002 156.83 72.2402C156.855 71.9444 156.765 71.6501 156.579 71.419C156.393 71.1879 156.124 71.0378 155.83 71.0002ZM155.83 73.1402C155.644 73.1688 155.454 73.1398 155.285 73.0572C155.116 72.9745 154.977 72.8422 154.885 72.678C154.794 72.5137 154.755 72.3255 154.774 72.1385C154.793 71.9515 154.869 71.7748 154.991 71.6322C155.113 71.4895 155.276 71.3877 155.458 71.3404C155.64 71.2932 155.832 71.3028 156.008 71.3679C156.185 71.433 156.337 71.5506 156.444 71.7047C156.552 71.8589 156.609 72.0423 156.61 72.2302C156.621 72.4524 156.544 72.6701 156.396 72.8365C156.249 73.0029 156.042 73.1047 155.82 73.1202L155.83 73.1402ZM168.31 70.3602C168.055 70.3065 167.79 70.3329 167.551 70.4357C167.312 70.5386 167.111 70.7128 166.975 70.9345C166.839 71.1562 166.775 71.4146 166.792 71.6741C166.809 71.9336 166.905 72.1816 167.069 72.384C167.232 72.5865 167.454 72.7334 167.704 72.8047C167.954 72.8761 168.22 72.8683 168.466 72.7824C168.711 72.6965 168.924 72.5368 169.075 72.3251C169.226 72.1135 169.308 71.8602 169.31 71.6002C169.335 71.3044 169.245 71.0101 169.059 70.779C168.873 70.5479 168.604 70.3978 168.31 70.3602ZM168.31 72.5002C168.124 72.5288 167.934 72.4998 167.765 72.4172C167.596 72.3345 167.457 72.2022 167.365 72.038C167.274 71.8737 167.235 71.6855 167.254 71.4985C167.273 71.3115 167.349 71.1348 167.471 70.9922C167.593 70.8495 167.756 70.7477 167.938 70.7004C168.12 70.6532 168.312 70.6628 168.488 70.7279C168.665 70.793 168.817 70.9106 168.924 71.0647C169.032 71.2189 169.089 71.4023 169.09 71.5902C169.098 71.7019 169.084 71.814 169.048 71.9203C169.013 72.0266 168.957 72.1248 168.884 72.2094C168.81 72.2939 168.721 72.3631 168.621 72.4131C168.52 72.463 168.411 72.4926 168.3 72.5002H168.31ZM159.07 65.4302C158.815 65.3765 158.55 65.4029 158.311 65.5057C158.072 65.6086 157.871 65.7828 157.735 66.0045C157.599 66.2262 157.535 66.4846 157.552 66.7441C157.569 67.0036 157.666 67.2516 157.829 67.454C157.992 67.6565 158.214 67.8034 158.464 67.8747C158.714 67.9461 158.98 67.9383 159.226 67.8524C159.471 67.7665 159.684 67.6068 159.835 67.3951C159.986 67.1835 160.068 66.9302 160.07 66.6702C160.095 66.3744 160.005 66.0801 159.819 65.849C159.633 65.6179 159.364 65.4678 159.07 65.4302ZM159.07 67.5602C158.848 67.5423 158.641 67.4379 158.496 67.2696C158.35 67.1013 158.276 66.8825 158.29 66.6602C158.271 66.5473 158.278 66.4318 158.309 66.3217C158.34 66.2116 158.394 66.1095 158.468 66.0225C158.542 65.9354 158.635 65.8656 158.738 65.8176C158.842 65.7697 158.955 65.7449 159.07 65.7449C159.184 65.7449 159.297 65.7697 159.401 65.8176C159.504 65.8656 159.597 65.9354 159.671 66.0225C159.745 66.1095 159.799 66.2116 159.83 66.3217C159.861 66.4318 159.868 66.5473 159.85 66.6602C159.863 66.8841 159.788 67.1043 159.64 67.2729C159.492 67.4415 159.283 67.5448 159.06 67.5602H159.07ZM159 61.8102C159.254 61.8638 159.519 61.8374 159.758 61.7346C159.997 61.6318 160.198 61.4576 160.334 61.2358C160.47 61.0141 160.534 60.7558 160.517 60.4963C160.5 60.2367 160.404 59.9888 160.24 59.7863C160.077 59.5839 159.855 59.4369 159.605 59.3656C159.355 59.2943 159.089 59.3021 158.843 59.388C158.598 59.4738 158.385 59.6336 158.234 59.8452C158.083 60.0569 158.001 60.3101 158 60.5702C157.974 60.866 158.064 61.1602 158.25 61.3914C158.436 61.6225 158.705 61.7726 159 61.8102ZM159 59.6602C159.222 59.6781 159.428 59.7824 159.574 59.9507C159.719 60.119 159.793 60.3379 159.78 60.5602C159.798 60.6731 159.791 60.7886 159.76 60.8987C159.729 61.0088 159.675 61.1108 159.601 61.1979C159.527 61.2849 159.434 61.3548 159.331 61.4027C159.227 61.4507 159.114 61.4755 159 61.4755C158.885 61.4755 158.772 61.4507 158.668 61.4027C158.565 61.3548 158.472 61.2849 158.398 61.1979C158.324 61.1108 158.27 61.0088 158.239 60.8987C158.208 60.7886 158.201 60.6731 158.22 60.5602C158.206 60.3379 158.28 60.119 158.426 59.9507C158.571 59.7824 158.778 59.6781 159 59.6602ZM151.34 65.5802C151.049 65.6326 150.786 65.7855 150.596 66.0121C150.407 66.2388 150.303 66.5248 150.303 66.8202C150.303 67.1156 150.407 67.4016 150.596 67.6282C150.786 67.8549 151.049 68.0078 151.34 68.0602C151.63 68.0078 151.893 67.8549 152.083 67.6282C152.272 67.4016 152.376 67.1156 152.376 66.8202C152.376 66.5248 152.272 66.2388 152.083 66.0121C151.893 65.7855 151.63 65.6326 151.34 65.5802ZM151.34 67.7202C151.116 67.7023 150.908 67.5966 150.762 67.426C150.616 67.2555 150.543 67.0341 150.56 66.8102C150.541 66.6973 150.548 66.5818 150.579 66.4717C150.61 66.3616 150.664 66.2595 150.738 66.1725C150.812 66.0854 150.905 66.0156 151.008 65.9676C151.112 65.9197 151.225 65.8949 151.34 65.8949C151.454 65.8949 151.567 65.9197 151.671 65.9676C151.774 66.0156 151.867 66.0854 151.941 66.1725C152.015 66.2595 152.069 66.3616 152.1 66.4717C152.131 66.5818 152.138 66.6973 152.12 66.8102C152.128 66.9219 152.114 67.0341 152.078 67.1403C152.043 67.2466 151.987 67.3448 151.914 67.4294C151.84 67.5139 151.751 67.5831 151.651 67.6331C151.55 67.683 151.441 67.7126 151.33 67.7202H151.34ZM140.9 65.8502C140.647 65.7986 140.385 65.8264 140.149 65.9297C139.912 66.033 139.714 66.2067 139.58 66.4272C139.447 66.6476 139.385 66.9039 139.403 67.161C139.42 67.4181 139.517 67.6635 139.68 67.8635C139.842 68.0634 140.063 68.2083 140.311 68.2781C140.559 68.348 140.822 68.3394 141.065 68.2537C141.309 68.1679 141.519 68.0091 141.668 67.7991C141.818 67.589 141.898 67.3379 141.9 67.0802C141.925 66.7855 141.835 66.4924 141.648 66.2629C141.462 66.0334 141.193 65.8854 140.9 65.8502ZM140.9 67.9802C140.676 67.9623 140.468 67.8566 140.322 67.686C140.176 67.5155 140.103 67.2941 140.12 67.0702C140.142 66.9208 140.208 66.7811 140.308 66.6677C140.408 66.5543 140.538 66.472 140.684 66.4305C140.829 66.389 140.983 66.3901 141.128 66.4336C141.273 66.4772 141.402 66.5613 141.5 66.676C141.599 66.7908 141.662 66.9314 141.683 67.0811C141.704 67.2308 141.681 67.3834 141.618 67.5207C141.555 67.658 141.453 67.7742 141.326 67.8557C141.199 67.9371 141.051 67.9803 140.9 67.9802ZM168.24 67.5102C168.492 67.5616 168.753 67.534 168.989 67.4311C169.225 67.3282 169.423 67.1551 169.557 66.9353C169.691 66.7155 169.754 66.4597 169.737 66.203C169.72 65.9463 169.624 65.701 169.462 65.5007C169.301 65.3004 169.082 65.1549 168.834 65.0839C168.587 65.0129 168.324 65.02 168.081 65.1042C167.837 65.1883 167.626 65.3455 167.476 65.5542C167.325 65.7628 167.243 66.0129 167.24 66.2702C167.214 66.566 167.304 66.8602 167.49 67.0914C167.676 67.3225 167.945 67.4726 168.24 67.5102ZM168.24 65.3602C168.463 65.3781 168.671 65.4838 168.817 65.6543C168.963 65.8248 169.036 66.0462 169.02 66.2702C169.038 66.3831 169.031 66.4986 169 66.6087C168.969 66.7188 168.915 66.8208 168.841 66.9079C168.767 66.9949 168.674 67.0648 168.571 67.1127C168.467 67.1607 168.354 67.1855 168.24 67.1855C168.125 67.1855 168.012 67.1607 167.908 67.1127C167.805 67.0648 167.712 66.9949 167.638 66.9079C167.564 66.8208 167.51 66.7188 167.479 66.6087C167.448 66.4986 167.441 66.3831 167.46 66.2702C167.443 66.0478 167.514 65.8278 167.658 65.6576C167.802 65.4873 168.007 65.3805 168.23 65.3602H168.24ZM176.2 66.2302C176.165 66.0318 176.074 65.8475 175.937 65.6994C175.801 65.5512 175.625 65.4454 175.43 65.3947C175.235 65.3439 175.03 65.3502 174.838 65.4129C174.647 65.4756 174.478 65.5921 174.35 65.7484C174.223 65.9046 174.144 66.0942 174.122 66.2943C174.099 66.4945 174.135 66.6969 174.225 66.8773C174.314 67.0577 174.454 67.2086 174.626 67.312C174.799 67.4153 174.998 67.4668 175.2 67.4602C175.492 67.4226 175.759 67.2739 175.945 67.045C176.131 66.8161 176.222 66.5243 176.2 66.2302ZM174.37 66.2302C174.392 66.0808 174.458 65.9411 174.558 65.8277C174.658 65.7143 174.788 65.632 174.934 65.5905C175.079 65.549 175.233 65.5501 175.378 65.5936C175.523 65.6371 175.652 65.7213 175.75 65.8361C175.849 65.9508 175.912 66.0914 175.933 66.2411C175.954 66.3908 175.931 66.5434 175.868 66.6807C175.805 66.818 175.703 66.9342 175.576 67.0157C175.449 67.0971 175.301 67.1403 175.15 67.1402C175.038 67.1314 174.929 67.1005 174.829 67.0494C174.729 66.9983 174.641 66.928 174.568 66.8425C174.496 66.757 174.441 66.658 174.407 66.5512C174.373 66.4444 174.36 66.3319 174.37 66.2202V66.2302ZM184.87 64.7302C184.615 64.6765 184.35 64.7029 184.111 64.8057C183.872 64.9086 183.671 65.0828 183.535 65.3045C183.399 65.5262 183.335 65.7845 183.352 66.0441C183.369 66.3036 183.466 66.5516 183.629 66.754C183.792 66.9565 184.014 67.1034 184.264 67.1747C184.514 67.2461 184.78 67.2383 185.026 67.1524C185.271 67.0665 185.484 66.9068 185.635 66.6951C185.786 66.4835 185.868 66.2302 185.87 65.9702C185.895 65.6744 185.805 65.3801 185.619 65.149C185.433 64.9179 185.164 64.7678 184.87 64.7302ZM184.87 66.8702C184.645 66.8523 184.436 66.7469 184.288 66.5767C184.141 66.4065 184.066 66.1851 184.08 65.9602C184.067 65.8496 184.078 65.7377 184.112 65.6317C184.146 65.5257 184.201 65.4281 184.275 65.3451C184.349 65.2622 184.44 65.1958 184.542 65.1504C184.643 65.1049 184.753 65.0814 184.865 65.0814C184.976 65.0814 185.086 65.1049 185.187 65.1504C185.289 65.1958 185.38 65.2622 185.454 65.3451C185.528 65.4281 185.584 65.5257 185.617 65.6317C185.651 65.7377 185.662 65.8496 185.65 65.9602C185.658 66.0719 185.644 66.1841 185.608 66.2903C185.573 66.3966 185.517 66.4948 185.444 66.5794C185.37 66.6639 185.281 66.7332 185.181 66.7831C185.08 66.833 184.971 66.8626 184.86 66.8702H184.87ZM178.06 59.8302C177.805 59.7764 177.539 59.803 177.3 59.9062C177.061 60.0095 176.86 60.1843 176.724 60.4066C176.588 60.629 176.525 60.8879 176.542 61.1478C176.56 61.4077 176.658 61.6558 176.822 61.8579C176.986 62.06 177.209 62.2062 177.46 62.2764C177.711 62.3466 177.977 62.3374 178.223 62.2499C178.468 62.1624 178.68 62.001 178.83 61.788C178.98 61.5749 179.06 61.3207 179.06 61.0602C179.082 60.766 178.991 60.4743 178.805 60.2453C178.619 60.0164 178.352 59.8678 178.06 59.8302ZM178.06 61.9602C177.838 61.9423 177.631 61.8379 177.486 61.6696C177.34 61.5013 177.266 61.2825 177.28 61.0602C177.261 60.9473 177.268 60.8318 177.299 60.7217C177.33 60.6116 177.384 60.5095 177.458 60.4225C177.532 60.3354 177.625 60.2656 177.728 60.2176C177.832 60.1697 177.945 60.1449 178.06 60.1449C178.174 60.1449 178.287 60.1697 178.391 60.2176C178.494 60.2656 178.587 60.3354 178.661 60.4225C178.735 60.5095 178.789 60.6116 178.82 60.7217C178.851 60.8318 178.858 60.9473 178.84 61.0602C178.852 61.1742 178.841 61.2896 178.808 61.3994C178.774 61.5091 178.719 61.611 178.645 61.6988C178.571 61.7867 178.481 61.8586 178.378 61.9104C178.276 61.9622 178.164 61.9927 178.05 62.0002L178.06 61.9602ZM184.82 62.0702C185.074 62.1238 185.339 62.0974 185.578 61.9946C185.817 61.8918 186.018 61.7176 186.154 61.4959C186.29 61.2741 186.354 61.0158 186.337 60.7563C186.32 60.4967 186.224 60.2488 186.06 60.0463C185.897 59.8439 185.675 59.6969 185.425 59.6256C185.175 59.5543 184.909 59.5621 184.663 59.648C184.418 59.7338 184.205 59.8936 184.054 60.1052C183.903 60.3169 183.821 60.5701 183.82 60.8302C183.794 61.126 183.884 61.4202 184.07 61.6514C184.256 61.8825 184.525 62.0326 184.82 62.0702ZM184.82 59.9202C185.042 59.9381 185.248 60.0424 185.394 60.2107C185.539 60.379 185.613 60.5979 185.6 60.8202C185.618 60.9331 185.611 61.0486 185.58 61.1587C185.549 61.2688 185.495 61.3708 185.421 61.4579C185.347 61.5449 185.254 61.6148 185.151 61.6627C185.047 61.7107 184.934 61.7355 184.82 61.7355C184.705 61.7355 184.592 61.7107 184.488 61.6627C184.385 61.6148 184.292 61.5449 184.218 61.4579C184.144 61.3708 184.09 61.2688 184.059 61.1587C184.028 61.0486 184.021 60.9331 184.04 60.8202C184.026 60.5995 184.098 60.382 184.242 60.214C184.386 60.0459 184.589 59.9405 184.81 59.9202H184.82ZM185.44 54.5502C185.187 54.4986 184.925 54.5264 184.689 54.6297C184.452 54.733 184.254 54.9067 184.12 55.1272C183.987 55.3476 183.925 55.6039 183.943 55.861C183.96 56.1181 184.057 56.3635 184.22 56.5635C184.382 56.7634 184.603 56.9083 184.851 56.9781C185.099 57.048 185.362 57.0394 185.605 56.9537C185.849 56.8679 186.059 56.7091 186.208 56.4991C186.358 56.289 186.438 56.0379 186.44 55.7802C186.465 55.4855 186.375 55.1924 186.188 54.9629C186.002 54.7334 185.733 54.5854 185.44 54.5502ZM185.44 56.6802C185.216 56.6623 185.008 56.5565 184.862 56.386C184.716 56.2155 184.643 55.9941 184.66 55.7702C184.647 55.6596 184.658 55.5477 184.692 55.4417C184.726 55.3357 184.781 55.2381 184.855 55.1551C184.929 55.0722 185.02 55.0058 185.122 54.9604C185.223 54.9149 185.333 54.8914 185.445 54.8914C185.556 54.8914 185.666 54.9149 185.767 54.9604C185.869 55.0058 185.96 55.0722 186.034 55.1551C186.108 55.2381 186.164 55.3357 186.197 55.4417C186.231 55.5477 186.242 55.6596 186.23 55.7702C186.243 55.9967 186.167 56.2195 186.017 56.39C185.867 56.5604 185.656 56.6648 185.43 56.6802H185.44ZM181.92 50.7602C181.885 50.5618 181.794 50.3775 181.657 50.2294C181.521 50.0812 181.345 49.9754 181.15 49.9247C180.955 49.8739 180.75 49.8802 180.558 49.9429C180.367 50.0056 180.198 50.1221 180.07 50.2784C179.943 50.4346 179.864 50.6242 179.842 50.8243C179.819 51.0245 179.855 51.2269 179.945 51.4073C180.034 51.5877 180.174 51.7386 180.346 51.842C180.519 51.9453 180.718 51.9968 180.92 51.9902C181.212 51.9526 181.479 51.8039 181.665 51.575C181.851 51.3461 181.942 51.0543 181.92 50.7602ZM180.09 50.7602C180.112 50.6108 180.178 50.4711 180.278 50.3577C180.378 50.2443 180.508 50.162 180.654 50.1205C180.799 50.079 180.953 50.0801 181.098 50.1236C181.243 50.1671 181.372 50.2513 181.47 50.366C181.569 50.4808 181.632 50.6214 181.653 50.7711C181.674 50.9208 181.651 51.0734 181.588 51.2107C181.525 51.348 181.423 51.4642 181.296 51.5457C181.169 51.6271 181.021 51.6703 180.87 51.6702C180.758 51.6613 180.649 51.6305 180.549 51.5794C180.449 51.5283 180.361 51.458 180.288 51.3725C180.216 51.287 180.161 51.188 180.127 51.0812C180.093 50.9744 180.08 50.8619 180.09 50.7502V50.7602ZM178.46 45.0002C178.417 44.8184 178.323 44.6524 178.191 44.5208C178.058 44.3893 177.892 44.2974 177.71 44.2558C177.528 44.2141 177.338 44.2242 177.161 44.285C176.984 44.3458 176.828 44.4548 176.711 44.5997C176.593 44.7446 176.518 44.9196 176.494 45.1049C176.471 45.2901 176.5 45.4783 176.578 45.648C176.656 45.8177 176.78 45.9622 176.935 46.0651C177.091 46.1679 177.273 46.2251 177.46 46.2302C177.752 46.1926 178.019 46.0439 178.205 45.815C178.391 45.5861 178.482 45.2943 178.46 45.0002ZM176.64 45.0002C176.662 44.8508 176.728 44.7111 176.828 44.5977C176.928 44.4843 177.058 44.402 177.204 44.3605C177.349 44.319 177.503 44.3201 177.648 44.3636C177.793 44.4071 177.922 44.4913 178.02 44.606C178.119 44.7208 178.182 44.8614 178.203 45.0111C178.224 45.1608 178.201 45.3134 178.138 45.4507C178.075 45.5879 177.973 45.7042 177.846 45.7857C177.719 45.8671 177.571 45.9103 177.42 45.9102C177.196 45.8923 176.988 45.7865 176.842 45.616C176.696 45.4455 176.623 45.2241 176.64 45.0002ZM175.78 37.4702C176.039 37.4623 176.29 37.3783 176.502 37.2285C176.713 37.0788 176.876 36.87 176.97 36.6282C177.064 36.3864 177.084 36.1224 177.029 35.869C176.974 35.6156 176.845 35.3842 176.659 35.2036C176.473 35.0229 176.238 34.9011 175.983 34.8534C175.728 34.8056 175.464 34.834 175.226 34.9349C174.987 35.0359 174.783 35.205 174.64 35.4211C174.496 35.6373 174.42 35.8908 174.42 36.1502C174.422 36.3261 174.459 36.4999 174.529 36.6615C174.599 36.823 174.7 36.9693 174.826 37.0919C174.952 37.2145 175.102 37.311 175.265 37.3759C175.429 37.4408 175.604 37.4728 175.78 37.4702ZM175.78 35.1702C175.977 35.1702 176.171 35.2288 176.335 35.3387C176.5 35.4486 176.628 35.6048 176.703 35.7875C176.779 35.9702 176.799 36.1713 176.76 36.3653C176.722 36.5592 176.626 36.7374 176.487 36.8773C176.347 37.0171 176.169 37.1124 175.975 37.151C175.781 37.1895 175.58 37.1697 175.397 37.094C175.214 37.0184 175.058 36.8902 174.948 36.7257C174.838 36.5613 174.78 36.3679 174.78 36.1702C174.779 35.9084 174.882 35.657 175.065 35.47C175.249 35.2831 175.498 35.1754 175.76 35.1702H175.78ZM181.63 37.5402C181.889 37.5323 182.14 37.4483 182.352 37.2985C182.563 37.1488 182.726 36.94 182.82 36.6982C182.914 36.4564 182.934 36.1924 182.879 35.939C182.824 35.6856 182.695 35.4542 182.509 35.2736C182.323 35.0929 182.088 34.9711 181.833 34.9234C181.578 34.8756 181.314 34.904 181.076 35.0049C180.837 35.1059 180.633 35.275 180.49 35.4911C180.346 35.7073 180.27 35.9608 180.27 36.2202C180.271 36.3965 180.307 36.5709 180.376 36.7331C180.446 36.8953 180.547 37.0421 180.673 37.1649C180.8 37.2877 180.949 37.3842 181.114 37.4486C181.278 37.513 181.453 37.5442 181.63 37.5402ZM181.63 35.2402C181.827 35.2402 182.021 35.2988 182.185 35.4087C182.35 35.5186 182.478 35.6748 182.553 35.8575C182.629 36.0402 182.649 36.2413 182.61 36.4353C182.572 36.6292 182.476 36.8074 182.337 36.9473C182.197 37.0871 182.019 37.1824 181.825 37.221C181.631 37.2595 181.43 37.2397 181.247 37.164C181.064 37.0884 180.908 36.9602 180.798 36.7957C180.688 36.6313 180.63 36.438 180.63 36.2402C180.63 35.9767 180.733 35.7238 180.919 35.5366C181.104 35.3493 181.356 35.2428 181.62 35.2402H181.63ZM187.54 37.2402C187.799 37.2323 188.05 37.1483 188.262 36.9985C188.473 36.8488 188.636 36.64 188.73 36.3982C188.824 36.1564 188.844 35.8924 188.789 35.639C188.734 35.3856 188.605 35.1542 188.419 34.9736C188.233 34.7929 187.998 34.6711 187.743 34.6234C187.488 34.5756 187.224 34.604 186.986 34.7049C186.747 34.8059 186.543 34.975 186.4 35.1911C186.256 35.4073 186.18 35.6608 186.18 35.9202C186.182 36.0961 186.219 36.2699 186.289 36.4315C186.359 36.593 186.46 36.7393 186.586 36.8619C186.712 36.9845 186.862 37.081 187.025 37.1459C187.189 37.2108 187.364 37.2428 187.54 37.2402ZM187.54 34.9402C187.737 34.9402 187.931 34.9988 188.095 35.1087C188.26 35.2186 188.388 35.3748 188.463 35.5575C188.539 35.7402 188.559 35.9413 188.52 36.1353C188.482 36.3292 188.386 36.5074 188.247 36.6473C188.107 36.7871 187.929 36.8824 187.735 36.921C187.541 36.9595 187.34 36.9397 187.157 36.864C186.974 36.7884 186.818 36.6602 186.708 36.4957C186.598 36.3313 186.54 36.1379 186.54 35.9402C186.54 35.6767 186.643 35.4238 186.829 35.2366C187.014 35.0493 187.266 34.9428 187.53 34.9402H187.54ZM185 45.1302C184.963 44.9326 184.871 44.7496 184.733 44.603C184.596 44.4563 184.42 44.3522 184.225 44.3028C184.03 44.2535 183.825 44.2611 183.635 44.3246C183.444 44.3882 183.276 44.5051 183.15 44.6615C183.023 44.8179 182.945 45.0072 182.923 45.2069C182.901 45.4067 182.937 45.6084 183.027 45.7883C183.116 45.9682 183.256 46.1186 183.428 46.2218C183.6 46.3249 183.799 46.3764 184 46.3702C184.293 46.3302 184.56 46.1795 184.746 45.949C184.932 45.7184 185.023 45.4255 185 45.1302ZM183.17 45.1302C183.185 44.9801 183.243 44.8375 183.337 44.7195C183.431 44.6014 183.557 44.5127 183.7 44.4639C183.843 44.4151 183.996 44.4082 184.143 44.444C184.29 44.4798 184.423 44.5569 184.527 44.6661C184.631 44.7753 184.702 44.912 184.731 45.0601C184.76 45.2082 184.746 45.3615 184.69 45.5018C184.635 45.6422 184.54 45.7637 184.418 45.852C184.295 45.9403 184.15 45.9917 184 46.0002C183.887 45.9976 183.776 45.9727 183.673 45.9269C183.571 45.8812 183.478 45.8155 183.401 45.7336C183.323 45.6517 183.263 45.5554 183.224 45.4501C183.184 45.3448 183.166 45.2326 183.17 45.1202V45.1302ZM188.36 43.7302C188.105 43.6765 187.84 43.7029 187.601 43.8057C187.362 43.9086 187.161 44.0828 187.025 44.3045C186.889 44.5262 186.825 44.7845 186.842 45.0441C186.859 45.3036 186.955 45.5516 187.119 45.754C187.282 45.9565 187.504 46.1034 187.754 46.1747C188.004 46.2461 188.27 46.2383 188.516 46.1524C188.761 46.0665 188.974 45.9068 189.125 45.6951C189.276 45.4835 189.358 45.2302 189.36 44.9702C189.385 44.6744 189.295 44.3801 189.109 44.149C188.923 43.9179 188.654 43.7678 188.36 43.7302ZM188.36 45.8702C188.174 45.8967 187.985 45.8658 187.817 45.7817C187.649 45.6976 187.511 45.5642 187.422 45.3995C187.332 45.2348 187.295 45.0466 187.315 44.8602C187.335 44.6737 187.412 44.4979 187.535 44.3563C187.658 44.2147 187.821 44.114 188.003 44.0678C188.185 44.0216 188.376 44.032 188.552 44.0977C188.727 44.1634 188.879 44.2812 188.986 44.4354C189.093 44.5895 189.15 44.7726 189.15 44.9602C189.158 45.0726 189.143 45.1856 189.107 45.2925C189.071 45.3994 189.015 45.498 188.94 45.5827C188.866 45.6674 188.775 45.7365 188.674 45.7858C188.572 45.8352 188.462 45.8638 188.35 45.8702H188.36ZM190.65 66.9102C190.904 66.9638 191.169 66.9374 191.408 66.8346C191.647 66.7318 191.848 66.5576 191.984 66.3359C192.12 66.1141 192.184 65.8558 192.167 65.5963C192.15 65.3367 192.054 65.0888 191.89 64.8863C191.727 64.6839 191.505 64.5369 191.255 64.4656C191.005 64.3943 190.739 64.4021 190.493 64.488C190.248 64.5738 190.035 64.7336 189.884 64.9452C189.733 65.1569 189.651 65.4101 189.65 65.6702C189.624 65.966 189.714 66.2602 189.9 66.4914C190.086 66.7225 190.355 66.8726 190.65 66.9102ZM190.65 64.7602C190.873 64.7756 191.082 64.8788 191.23 65.0474C191.378 65.216 191.453 65.4363 191.44 65.6602C191.452 65.7707 191.441 65.8826 191.407 65.9886C191.374 66.0946 191.318 66.1923 191.244 66.2752C191.17 66.3582 191.079 66.4245 190.977 66.47C190.876 66.5154 190.766 66.5389 190.655 66.5389C190.543 66.5389 190.433 66.5154 190.332 66.47C190.23 66.4245 190.139 66.3582 190.065 66.2752C189.991 66.1923 189.936 66.0946 189.902 65.9886C189.868 65.8826 189.857 65.7707 189.87 65.6602C189.856 65.4395 189.928 65.222 190.072 65.054C190.216 64.8859 190.419 64.7805 190.64 64.7602H190.65ZM175.67 70.3102C175.415 70.2565 175.15 70.2829 174.911 70.3857C174.672 70.4886 174.471 70.6628 174.335 70.8845C174.199 71.1062 174.135 71.3646 174.152 71.6241C174.169 71.8836 174.265 72.1316 174.429 72.334C174.592 72.5365 174.814 72.6834 175.064 72.7548C175.314 72.8261 175.58 72.8183 175.826 72.7324C176.071 72.6465 176.284 72.4868 176.435 72.2751C176.586 72.0635 176.668 71.8102 176.67 71.5502C176.695 71.2544 176.605 70.9601 176.419 70.729C176.233 70.4979 175.964 70.3478 175.67 70.3102ZM175.67 72.4502C175.446 72.4323 175.238 72.3265 175.092 72.156C174.946 71.9855 174.873 71.7641 174.89 71.5402C174.871 71.4273 174.878 71.3118 174.909 71.2017C174.94 71.0916 174.994 70.9895 175.068 70.9025C175.142 70.8154 175.235 70.7456 175.338 70.6976C175.442 70.6497 175.555 70.6249 175.67 70.6249C175.784 70.6249 175.897 70.6497 176.001 70.6976C176.104 70.7456 176.197 70.8154 176.271 70.9025C176.345 70.9895 176.399 71.0916 176.43 71.2017C176.461 71.3118 176.468 71.4273 176.45 71.5402C176.458 71.6519 176.444 71.7641 176.408 71.8703C176.373 71.9766 176.317 72.0748 176.244 72.1594C176.17 72.2439 176.081 72.3131 175.981 72.3631C175.88 72.413 175.771 72.4426 175.66 72.4502H175.67ZM181.83 70.2202C181.575 70.1665 181.31 70.1929 181.071 70.2957C180.832 70.3986 180.631 70.5728 180.495 70.7945C180.359 71.0162 180.295 71.2745 180.312 71.5341C180.329 71.7936 180.425 72.0416 180.589 72.244C180.752 72.4465 180.974 72.5934 181.224 72.6647C181.474 72.7361 181.74 72.7283 181.986 72.6424C182.231 72.5565 182.444 72.3968 182.595 72.1851C182.746 71.9735 182.828 71.7202 182.83 71.4602C182.855 71.1644 182.765 70.8701 182.579 70.639C182.393 70.4079 182.124 70.2578 181.83 70.2202ZM181.83 72.3602C181.644 72.3888 181.454 72.3598 181.285 72.2772C181.116 72.1945 180.977 72.0622 180.885 71.898C180.794 71.7337 180.755 71.5455 180.774 71.3585C180.793 71.1715 180.869 70.9948 180.991 70.8522C181.113 70.7095 181.276 70.6077 181.458 70.5604C181.64 70.5132 181.832 70.5228 182.008 70.5879C182.185 70.653 182.337 70.7706 182.444 70.9247C182.552 71.0789 182.609 71.2623 182.61 71.4502C182.618 71.5619 182.604 71.674 182.568 71.7803C182.533 71.8866 182.477 71.9848 182.404 72.0694C182.33 72.1539 182.241 72.2231 182.141 72.2731C182.04 72.323 181.931 72.3526 181.82 72.3602H181.83ZM191 69.9002C190.747 69.8487 190.486 69.8763 190.25 69.9792C190.014 70.0821 189.816 70.2553 189.682 70.4751C189.548 70.6949 189.485 70.9506 189.502 71.2074C189.519 71.4641 189.615 71.7093 189.777 71.9096C189.938 72.1099 190.158 72.2555 190.405 72.3264C190.652 72.3974 190.915 72.3903 191.158 72.3062C191.402 72.222 191.613 72.0649 191.763 71.8562C191.914 71.6475 191.996 71.3975 192 71.1402C192.025 70.8444 191.935 70.5501 191.749 70.319C191.563 70.0879 191.294 69.9378 191 69.9002ZM191 72.0002C190.814 72.0288 190.624 71.9998 190.455 71.9172C190.286 71.8345 190.147 71.7022 190.055 71.538C189.964 71.3737 189.925 71.1855 189.944 70.9985C189.963 70.8115 190.039 70.6348 190.161 70.4922C190.283 70.3495 190.446 70.2477 190.628 70.2004C190.81 70.1532 191.002 70.1628 191.178 70.2279C191.355 70.293 191.507 70.4106 191.614 70.5647C191.722 70.7189 191.779 70.9023 191.78 71.0902C191.793 71.3135 191.72 71.5335 191.574 71.7034C191.429 71.8733 191.222 71.9798 191 72.0002ZM72.5295 123.87C72.6546 123.87 72.7768 123.833 72.8806 123.763C72.9844 123.694 73.0651 123.595 73.1125 123.479C73.1599 123.363 73.1717 123.236 73.1466 123.114C73.1215 122.991 73.0605 122.879 72.9714 122.791C72.8822 122.703 72.7691 122.644 72.6462 122.621C72.5233 122.598 72.3964 122.612 72.2814 122.661C72.1665 122.71 72.0688 122.793 72.0008 122.897C71.9328 123.002 71.8976 123.125 71.8995 123.25C71.8995 123.332 71.9159 123.414 71.9477 123.49C71.9795 123.566 72.026 123.634 72.0847 123.692C72.1433 123.75 72.2128 123.795 72.2892 123.826C72.3656 123.856 72.4473 123.872 72.5295 123.87Z" fill="black"/>
<path d="M72.6892 36.02C72.6892 36.1658 72.7472 36.3057 72.8503 36.4089C72.9534 36.512 73.0933 36.57 73.2392 36.57C73.3851 36.57 73.525 36.512 73.6281 36.4089C73.7313 36.3057 73.7892 36.1658 73.7892 36.02C73.7892 35.8741 73.7313 35.7342 73.6281 35.6311C73.525 35.5279 73.3851 35.47 73.2392 35.47C73.0933 35.47 72.9534 35.5279 72.8503 35.6311C72.7472 35.7342 72.6892 35.8741 72.6892 36.02Z" fill="black"/>
<path d="M74.2595 35.77C74.2595 35.9106 74.3154 36.0454 74.4147 36.1448C74.5141 36.2442 74.649 36.3 74.7895 36.3C74.9301 36.3 75.0649 36.2442 75.1643 36.1448C75.2637 36.0454 75.3195 35.9106 75.3195 35.77C75.3195 35.6294 75.2637 35.4946 75.1643 35.3952C75.0649 35.2958 74.9301 35.24 74.7895 35.24C74.649 35.24 74.5141 35.2958 74.4147 35.3952C74.3154 35.4946 74.2595 35.6294 74.2595 35.77Z" fill="black"/>
<path d="M74.5197 34.3302C74.6735 34.3302 74.821 34.2691 74.9298 34.1603C75.0386 34.0515 75.0997 33.904 75.0997 33.7502C75.0997 33.5963 75.0386 33.4488 74.9298 33.34C74.821 33.2313 74.6735 33.1702 74.5197 33.1702C74.4435 33.1702 74.3681 33.1852 74.2977 33.2143C74.2274 33.2435 74.1634 33.2862 74.1096 33.34C74.0557 33.3939 74.013 33.4578 73.9838 33.5282C73.9547 33.5986 73.9397 33.674 73.9397 33.7502C73.9397 33.8263 73.9547 33.9018 73.9838 33.9721C74.013 34.0425 74.0557 34.1064 74.1096 34.1603C74.1634 34.2141 74.2274 34.2569 74.2977 34.286C74.3681 34.3152 74.4435 34.3302 74.5197 34.3302ZM91.8597 85.7602C91.7268 85.7602 91.5968 85.7997 91.4864 85.8738C91.3761 85.9479 91.2902 86.0531 91.2398 86.1761C91.1894 86.2991 91.1767 86.4344 91.2034 86.5646C91.2301 86.6948 91.2949 86.8142 91.3896 86.9075C91.4843 87.0008 91.6046 87.0638 91.7352 87.0885C91.8658 87.1132 92.0009 87.0985 92.1231 87.0462C92.2453 86.994 92.3493 86.9066 92.4217 86.7951C92.4941 86.6836 92.5317 86.5531 92.5297 86.4202C92.5271 86.2442 92.4553 86.0764 92.33 85.9529C92.2046 85.8294 92.0357 85.7602 91.8597 85.7602ZM91.4897 81.1702C91.4897 81.2952 91.5269 81.4174 91.5966 81.5212C91.6663 81.625 91.7653 81.7057 91.881 81.7531C91.9967 81.8005 92.1238 81.8124 92.2463 81.7872C92.3688 81.7621 92.481 81.7011 92.5687 81.612C92.6564 81.5229 92.7156 81.4097 92.7388 81.2868C92.762 81.164 92.748 81.037 92.6988 80.9221C92.6496 80.8071 92.5673 80.7095 92.4624 80.6414C92.3575 80.5734 92.2347 80.5382 92.1097 80.5402C91.9443 80.5428 91.7867 80.6103 91.6707 80.7282C91.5547 80.8461 91.4897 81.0048 91.4897 81.1702ZM91.7697 77.7602C91.8868 77.7622 92.0018 77.7292 92.1002 77.6656C92.1985 77.602 92.2757 77.5106 92.3219 77.403C92.3681 77.2954 92.3812 77.1764 92.3596 77.0613C92.3379 76.9462 92.2825 76.8402 92.2004 76.7566C92.1183 76.6731 92.0132 76.6159 91.8985 76.5923C91.7838 76.5688 91.6647 76.5798 91.5563 76.6242C91.4479 76.6685 91.3551 76.7441 91.2899 76.8414C91.2246 76.9386 91.1897 77.0531 91.1897 77.1702C91.1897 77.3249 91.2505 77.4735 91.3589 77.5839C91.4674 77.6942 91.615 77.7575 91.7697 77.7602Z" fill="black"/>
</svg>
